<svg xmlns="http://www.w3.org/2000/svg" xml:space="preserve" viewBox="0 0 203.725 230.345" fill="currentColor"
  preserveAspectRatio="xMidYMid meet">
  <path
    d="M84.166 230.107c-.37-.234-.03-.523 2.551-2.172.473-.302.86-.657.86-.788 0-.38-.698-.276-1.058.159-.181.218-.44.396-.575.396-.44 0 1.177-1.33 1.81-1.49.34-.085.617-.273.617-.419 0-.145.185-.193.412-.106.396.152 2.498-.741 2.498-1.061 0-.086-.327-.085-.727.002-.653.14-.676.123-.223-.17.278-.18 1.244-.875 2.147-1.546.903-.67 1.777-1.302 1.942-1.404.483-.299.347.24-.228.903-.291.336-.53.639-.53.674 0 .116 1.871-.889 2.268-1.218.215-.179.447-.27.514-.202.166.166-.883 1.275-1.204 1.275-.14 0-.245.209-.234.463.013.277.075.33.155.133.073-.182.272-.332.442-.334.287-.003 2.822-2.284 2.822-2.54 0-.063-.287.073-.637.302-.423.277-.695.324-.81.139-.094-.154-.046-.28.108-.28.155 0 .28-.122.28-.272 0-.272-1.64.756-1.807 1.133a.366.366 0 0 1-.308.198c-.33 0-.134-.882.222-1 .17-.057.25-.2.176-.32-.074-.119.997-1.254 2.38-2.523 1.382-1.27 2.513-2.417 2.513-2.55 0-.275 1.032-1.796 1.494-2.203.168-.147.384-.535.481-.863.13-.44.068-.595-.238-.595-.457 0-.559-.409-.162-.654.139-.086.567-.734.951-1.44.385-.706.985-1.414 1.335-1.574.35-.159.637-.41.637-.557 0-.147.535-1.05 1.19-2.007.655-.956 1.19-1.842 1.19-1.968 0-.126.41-.922.91-1.77.929-1.574 1.549-3.603 1.877-6.144.102-.786.348-1.82.548-2.298.2-.478.441-1.71.537-2.738.095-1.028.276-1.869.4-1.869.125 0 .227-.178.227-.397 0-.218-.11-.397-.246-.397-.135 0-.193-.646-.128-1.437.07-.856.003-1.507-.165-1.61-.197-.123-.194-.28.01-.526.202-.243.22-.893.057-2.104-.129-.965-.146-1.808-.039-1.875.25-.154-.297-1.973-.592-1.973-.121 0-.22-.187-.22-.415 0-.378.038-.378.416 0 .684.684.987.47.397-.282-.302-.383-.549-.853-.549-1.045 0-.191-.16-.443-.358-.56-.378-.223-.794-.92-1.222-2.045-.43-1.129-.06-.765.654.643.369.728.798 1.323.953 1.323.321 0 .338.048-.597-1.72-.385-.727-1.01-1.611-1.388-1.964-.378-.353-.688-.86-.688-1.128 0-.628-1.575-3.429-1.836-3.267-.282.174-1.868-1.43-1.868-1.89 0-.21-.105-.315-.235-.235-.13.08-.532-.24-.894-.712-.628-.818-1.372-1.662-3.144-3.57-.44-.473-.891-.86-1.005-.86-.421 0-1.6 1.111-1.6 1.507 0 .492-3.377 3.785-3.881 3.785-.194 0-.353.116-.353.257 0 .141-.653.565-1.45.943-.798.377-1.525.807-1.617.955-.091.149.204.078.656-.156.453-.234.823-.321.823-.195 0 .316-.936 1.14-1.104.972-.074-.074-.767.462-1.54 1.19-1.585 1.497-2.436 1.82-1.064.404.492-.508.812-1.005.711-1.105-.1-.1-.747.392-1.437 1.095-.69.702-1.04 1.2-.777 1.107.297-.105.412-.066.306.106a.42.42 0 0 1-.477.165c-.168-.06-.515-.003-.77.128-.304.157-.462.138-.462-.054 0-.275-1.31.519-2.064 1.251-.189.183-.598.512-.91.73-.311.218-.501.462-.422.541.08.08.822-.412 1.65-1.093 1.106-.911 1.582-1.16 1.799-.944.378.379-.18 1.111-.847 1.111-.255 0-.613.179-.794.397-.18.218-.261.397-.178.397.418 0-.48 1.584-1.2 2.116-.657.486-.79.518-.653.16.199-.518.184-.511-1.97.95-.818.554-1.58 1.007-1.694 1.007-.32 0 .712-1.057 1.04-1.065.16-.004.706-.356 1.216-.782.838-.701.863-.76.264-.611-.364.09-.72.233-.794.319-.655.77-5.868 4.368-7.644 5.276-.67.343-1.279.71-1.351.817-.073.106-.609.324-1.191.485-2.217.612-3.71 1.232-3.21 1.333.334.068-.094.386-1.32.981-.998.485-1.857.839-1.91.786-.228-.228.29-.632 1.016-.792.433-.095.866-.3.961-.454.285-.46-1.738.03-2.527.613-.385.284-1.173.588-1.75.674-.994.149-1.022.135-.52-.263.724-.575.409-.54-1.103.124-1.278.561-2.037.76-3.241.847-.352.026-.695.215-.764.42-.085.256.011.32.309.206.238-.091.433-.05.433.09 0 .302-.452.304-1.19.007-.292-.118-.663-.108-.826.022-.163.13-.967.287-1.787.35-.82.062-1.758.307-2.085.543-.565.41-.517.42.993.244.873-.102 1.876-.294 2.229-.426.353-.132.977-.167 1.387-.076.69.151 3.517-.63 5.944-1.644 1.102-.46 1.806-.542 1.868-.218.028.145-.21.393-.53.55a112.803 112.803 0 0 0-2.696 1.357c-2.147 1.142-5.352 2.124-7.54 2.311-.8.068-2.086.242-2.857.387-.771.144-2.88.286-4.688.315-1.996.033-3.225.152-3.13.305.086.139.97.198 1.975.133 1.339-.087 1.82-.032 1.82.21 0 .694-3.95.57-4.184-.13-.051-.153-.43-.279-.843-.279-.412 0-.789-.11-.837-.245-.049-.135-.446-.32-.882-.413-.648-.138-.709-.115-.331.126.685.435.562.742-.238.59-.479-.092-.642-.04-.516.164.127.206-.047.257-.556.163-2.727-.5-3.384-.583-3.691-.465-.19.073-.974-.05-1.74-.275-1.85-.54-2.85-.782-3.608-.869-.99-.114-1.009-.363-.027-.363.52 0 .786-.096.64-.23-.38-.346-1.931-.58-2.094-.316-.175.284-1.2.045-1.2-.279 0-.128-.207-.234-.46-.234-.489 0-3.31-1.345-3.153-1.503.052-.051.945.194 1.985.546 1.04.352 1.892.552 1.892.444 0-.108-.506-.348-1.125-.533-.618-.185-1.683-.62-2.367-.965-1.174-.594-1.818-.511-1.391.179.097.156-.072.13-.374-.06-.486-.302-.5-.371-.127-.58.346-.194.196-.38-.812-1.007-.68-.424-1.352-.7-1.492-.612-.14.087-.627-.214-1.082-.668-.454-.455-.973-.77-1.154-.7-.18.069-.712-.387-1.182-1.013-.469-.627-1.109-1.283-1.422-1.459-.865-.486-3.335-3.552-4.675-5.803-2.067-3.474-3.358-6.436-4.508-10.343-.322-1.091-.68-2.222-.797-2.513-.392-.974-.537-1.681-.652-3.178-.135-1.763-.426-2.4-.66-1.45-.154.622-.171.61-.299-.212-.087-.564-.034-.833.152-.762.196.075.311-1.118.364-3.758.116-5.812.996-10.716 2.462-13.726.408-.836.747-1.37.755-1.186.007.184-.097.54-.23.794-.494.932-1.41 3.788-1.263 3.936.192.192.977-1.658.977-2.303 0-.264.446-.997.992-1.627.546-.631 1.217-1.648 1.493-2.26.275-.611.721-1.182.992-1.268.27-.085.491-.274.491-.418 0-.144-.119-.189-.264-.099-.146.09-.265.06-.265-.065 0-.288 1.49-2.672 2.11-3.374.256-.291.675-.86.931-1.262.88-1.385-.217-.513-1.282 1.02-.561.806-1.07 1.415-1.132 1.353-.253-.253.46-1.516 1.468-2.601 1.096-1.18 1.451-1.905.617-1.26-.357.277-.342.209.066-.298.601-.746 1.937-2.112 2.065-2.112.047 0 .815-.714 1.708-1.587.892-.873 1.748-1.588 1.901-1.588.315 0-2.102 2.418-4.03 4.033-.698.584-1.204 1.125-1.127 1.203.078.077.36-.057.627-.299.552-.499 1.116-.608.63-.121-.176.174-.318.407-.318.516 0 .329 1.172-.916 1.535-1.63.186-.365.72-.926 1.187-1.247 1.21-.832 2.702-2.235 2.702-2.541 0-.143.178-.288.396-.322.52-.081 3.768-2.262 3.608-2.422-.067-.068-.4.02-.74.195-.495.255-.556.252-.306-.013.171-.182.62-.365.998-.406.377-.042 1.106-.324 1.62-.627.515-.304 1.06-.552 1.21-.552.152 0 .592-.224.978-.498 1.188-.844 7.436-2.694 9.05-2.68.225.001.553-.14.727-.314.205-.205 1.508-.342 3.687-.386 2.02-.042 3.407-.18 3.462-.343.06-.182.277-.173.654.029.867.464 4.619.771 5.35.439.49-.224 1.13-.128 3.086.466 1.357.411 2.527.826 2.6.922.073.096.727.254 1.455.352 2.076.278 3.823.718 4.003 1.01.104.169-.124.203-.628.092-.656-.144-.817-.081-.935.368-.146.558.179.75.47.278.09-.145.29-.264.445-.264.19 0 .184.118-.019.361-.39.47-.07.706 1.823 1.34 1.493.502 2.517 1.145 1.39.873-.328-.079-.596-.022-.596.127 0 .156.31.207.728.12.909-.188 5.48 1.253 6.151 1.94.166.168 1.298.696 1.932.9.28.09.41.045.315-.108-.089-.144-.267-.262-.396-.262-.13 0-.954-.421-1.833-.936-.878-.515-2.105-1.111-2.726-1.325-.62-.213-1.366-.503-1.657-.643-.291-.14-1.381-.586-2.422-.99-1.04-.405-1.933-.855-1.984-1-.12-.347.964-.493 1.853-.249l.7.192-.66.2c-.365.11-.472.213-.24.227.232.015.768.198 1.19.407 1.812.898 2.72 1.109 2.548.592-.04-.12.02-.173.133-.118 2.317 1.128 5.057 2.32 5.332 2.32.146 0 .338.118.427.262.094.153-.036.199-.315.11-.426-.134-.422-.106.037.268.282.23.758.423 1.058.427.608.01 1.546.622 1.312.856-.225.225.765.69 1.354.637.297-.027.514.12.518.35.004.22.534.664 1.18.99.644.324 1.24.69 1.322.81.083.121.703.596 1.377 1.055.675.459 1.568 1.2 1.985 1.648.416.448 1.114.99 1.55 1.205.437.215 1.509 1.05 2.382 1.856.873.806 2.48 2.195 3.572 3.087 1.873 1.53 5.513 4.909 6.7 6.217.296.327.696.595.888.595.192 0 .35.121.35.269 0 .335 1.61 1.336 1.88 1.169.11-.068.286.016.391.186.12.194.077.24-.114.121-.168-.103-.305-.07-.305.076 0 .146.125.343.28.438.399.247 1.625-.107 1.435-.414-.088-.142.113-.257.445-.257.567 0 .55-.049-.28-.807-.486-.444-.81-.881-.72-.971.09-.09.44.094.776.41.948.89 1.11.677.272-.361-1.079-1.34-3.573-3.827-3.837-3.827-.123 0-.224-.121-.224-.269 0-.316-1.61-1.829-1.959-1.84-.131-.004-.012.26.265.587l.504.596-.59-.499c-.323-.274-.513-.62-.422-.767.092-.149-.238-.6-.732-1.003-1.036-.845-.88-1.328.214-.662.449.273.22-.05-.587-.826-.727-.7-2.2-2.252-3.274-3.45-1.074-1.197-2.074-2.1-2.224-2.008-.15.092-.194.042-.098-.113.095-.155-.184-.582-.62-.95-.438-.368-.795-.802-.795-.966 0-.163-.12-.223-.265-.134-.145.09-.264.058-.264-.073 0-.13-.923-1.19-2.05-2.356a245.277 245.277 0 0 1-4.814-5.187c-1.519-1.688-2.858-3.009-2.976-2.936-.118.073-.215-.01-.215-.184 0-.418-5.564-6.17-8.39-8.673-.551-.488-.83-.794-.62-.68.345.188-.003-.365-1.135-1.805-.577-.734-.762-.537-.25.265.439.685.404.674-.589-.179-1.084-.932-2.044-2.249-1.81-2.483.16-.159-3.334-5.085-4.734-6.676-.546-.62-.992-1.238-.992-1.372 0-.133-.506-.496-1.125-.807-1.022-.512-2.044-1.44-3.11-2.821-.236-.308-.263-.434-.065-.316.626.376.329-.241-.735-1.528-.586-.71-1.266-1.63-1.512-2.046-.246-.416-.588-.756-.76-.756-.313 0-.896-1.327-.896-2.038 0-.204-.288-.796-.64-1.315-.353-.519-.583-1.096-.512-1.282.072-.186.008-.414-.14-.506-.15-.092-.205-.342-.123-.556.082-.214.04-.388-.095-.388-.134 0-.522-.506-.861-1.125-.34-.618-.778-1.312-.975-1.541-.358-.419-1.96-5.11-1.928-5.647.009-.157.13-.001.27.347.14.349.318.57.397.49.08-.079-.231-1.614-.69-3.412-.923-3.62-.999-3.991-1.03-5.082-.017-.558-.126-.716-.42-.604-.471.182-.52-.13-.09-.56.616-.616.451-3.24-.203-3.24-.232 0-.368-.291-.368-.793 0-.457.14-.796.33-.798.253-.003.257-.052.015-.205-.292-.186-.388-3.75-.101-3.757.061-.002.33.194.595.435.42.38.484.385.484.034 0-.223-.18-.916-.4-1.54-.221-.625-.344-1.325-.275-1.555.07-.23.2-1.431.289-2.668.089-1.237.34-2.872.556-3.634.217-.762.404-1.74.417-2.174.012-.434.113-.733.223-.664.111.068.282-.352.38-.934.099-.582.288-1.125.42-1.207.133-.083.242-.388.242-.679 0-.291.485-1.531 1.078-2.756.593-1.225 1-2.354.903-2.51-.096-.155-.061-.426.077-.601.275-.351.702-1.785.628-2.115-.124-.557 3.016-6.48 3.291-6.206.097.096-.603 1.485-2.266 4.496-.462.837-.777 1.521-.7 1.521.187 0 2.286-3.281 3.046-4.762.954-1.861 2.655-4.264 3.84-5.428a75.326 75.326 0 0 0 2.406-2.517c.728-.8 2.19-2.103 3.248-2.897 1.059-.793 1.873-1.578 1.81-1.743-.196-.51.936-1.576 3.485-3.281 1.345-.9 2.382-1.736 2.306-1.86-.336-.543 5.333-3.185 7.112-3.315.565-.04 1.28-.197 1.588-.348 1.192-.581 3.153-1.365 3.417-1.365.152 0 .501-.204.776-.453.394-.356.545-.38.71-.112.171.276.67.262 2.63-.076 1.33-.23 2.9-.418 3.486-.418.587 0 1.48-.172 1.985-.383.504-.211.917-.27.917-.132s.393.25.873.25 1.04.15 1.244.331c.316.282.319.262.02-.132-.306-.406-.28-.463.212-.463.309 0 .561.12.561.265 0 .145.18.264.397.264.219 0 .397-.099.397-.22 0-.122.15-.222.331-.223.182-.002.599-.089.926-.194.617-.2.865.226.265.454-.182.07.086.132.595.138 2.443.031 8.127.497 8.443.692.195.12 1.56.553 3.034.961 3.8 1.053 5.096 1.494 6.983 2.378.912.427 1.805.778 1.984.78.18.002.921.299 1.649.66 1.553.77.693.618-1.633-.29-.898-.351-1.814-.638-2.035-.638-.221 0-.479-.124-.572-.275-.094-.152-.389-.206-.655-.122-.267.085-.561.03-.655-.121-.094-.152-.431-.275-.75-.275-.49.001-.437.09.346.574 1.386.856 3.327 1.541 4.496 1.587.571.023.982.132.913.244-.171.277.162.453 1.206.637.862.152 1.96.638 1.477.654-.134.004.3.282.962.618.664.336 1.82 1.079 2.57 1.65.75.573 1.567 1.042 1.815 1.044.249.001.422.152.386.334-.036.181.165.33.447.33.283 0 .6.14.705.31.133.215.04.251-.307.118-.64-.246-.469-.082 1.044.993.68.484 1.776 1.512 2.436 2.284.66.773 1.489 1.633 1.843 1.912.355.279.645.651.645.828 0 .176.35.527.778.78.427.252.852.695.944.983.09.288.333.524.536.524.209 0 .31.161.23.368-.08.206.305.834.868 1.42 1.775 1.85 3.122 3.817 2.82 4.118-.091.091-.015.348.17.57.713.86 2.652 4.983 3.186 6.777 1.2 4.03 1.433 13.094.367 14.284-.206.23-.374.728-.374 1.106 0 .556-.722 3.161-1.521 5.488-.075.218-.17.643-.21.944-.17 1.247-.68 2.72-1.049 3.026-.217.18-.395.544-.395.81 0 .264-.127.559-.283.655-.155.096-.214.352-.131.569.083.216-.08.718-.361 1.114-.282.395-.594 1.044-.694 1.442-.1.397-.644 1.204-1.208 1.791-.565.588-1.027 1.224-1.027 1.414 0 .19-.308.547-.685.793-.376.247-.626.507-.554.579.317.317-1.737 3.261-2.753 3.944-.379.255-.916.801-1.193 1.215-.277.414-.64.753-.806.753-.166 0-.371.18-.455.398-.084.218-.311.397-.505.397-.195 0-.764.428-1.265.952-2.207 2.305-8.623 5.73-12.356 6.597-1.25.29-1.918.573-1.918.813 0 .424.31.48.675.122.361-.355 1.558-.463 1.664-.15.116.344-1.958.72-3.072.555-.476-.07-.81-.035-.74.078.07.113-.374.217-.986.231-.612.015-1.946.127-2.965.25-2.761.333-8.624-.07-10.792-.74-.993-.308-2.208-.571-2.7-.585-.492-.014-.835-.121-.763-.238.123-.2-.45-.32-1.13-.238-.167.02-1.32-.442-2.563-1.027-1.243-.586-2.368-1.064-2.5-1.064-.226 0-1.66-1.18-4.687-3.856-.728-.643-1.449-1.17-1.602-1.17-.153 0-.689-.44-1.19-.977l-.912-.976.793.479c.554.333.373.07-.595-.87-.764-.743-1.389-1.478-1.389-1.636 0-.157-.12-.212-.267-.12-.147.09-.474-.22-.728-.688-.253-.469-.644-1.047-.868-1.285-.225-.238-.667-.984-.984-1.658-.317-.673-.698-1.3-.849-1.393-.15-.093-.265-.43-.256-.749.016-.551.031-.547.31.082.559 1.258.553-.352-.006-1.766-1.02-2.58-1.177-3.157-1.231-4.528-.036-.923.043-1.362.234-1.289.205.08.231-.664.088-2.569-.11-1.474-.1-3.241.024-3.927.123-.687.127-1.282.009-1.323-.119-.042-.002-.552.258-1.134.26-.582.55-1.416.645-1.852.128-.597.033-.499-.384.396-1.552 3.33-1.599 3.499-1.734 6.214-.125 2.532-.22 2.862-.641 2.245-.324-.473-.065-5.294.304-5.664.14-.14.255-.7.255-1.244 0-.545.116-1.062.258-1.15.141-.087.384-.63.54-1.205.154-.576.396-1.048.535-1.048.317 0 .316.068-.003.91-.362.952-.157.843.497-.264.323-.547.678-.865.849-.76.337.209.803-.402.581-.761-.081-.132-.246-.081-.365.112-.12.193-.29.278-.38.189-.238-.238.675-1.827 1.897-3.3 1.558-1.878 2.02-2.66 1.691-2.864-.153-.094-.279-.033-.279.136 0 .17-.29.537-.646.817-.355.279-.726.76-.823 1.068-.182.572-1.392 1.783-1.797 1.799-.123.004.205-.588.728-1.316.523-.727.95-1.519.95-1.758 0-.24.429-.958.952-1.597.708-.863 1.08-1.12 1.454-1.002.346.11.462.052.373-.189-.078-.21.556-.802 1.606-1.5.954-.633 1.67-1.217 1.588-1.298-.239-.239.405-.857.893-.857.248 0 .726-.293 1.063-.652 1.19-1.266 6.194-3.345 9.534-3.961 1.739-.32 4.652-.452 4.234-.19-.219.136-1.29.324-2.382.419-2.102.182-5.647.941-5.426 1.163.136.135 3.328-.35 4.802-.73 1.312-.34 2.71-.158 3.137.405.23.304.384.369.39.163.005-.254.137-.27.52-.066.683.366 1.152.348.915-.036-.135-.217-.041-.248.315-.103 1.156.47 2.297.704 2.968.608.607-.086.545-.133-.417-.315-.621-.118-1.202-.33-1.29-.472-.098-.16.182-.197.734-.096.8.145.825.133.238-.118-.36-.154-.938-.209-1.283-.122-.445.111-.593.058-.51-.185.14-.405 3.34-.42 3.605-.016.091.138.562.33 1.047.424.485.094 1.186.41 1.557.703.372.292.8.531.95.531.15 0 .48.186.732.414.251.228.836.425 1.3.438.618.017.902.182 1.069.622.125.328.472.675.772.77.3.095.544.287.544.427s-.34.078-.754-.137c-1.391-.72-6.13-2.534-6.593-2.524-.674.013.707.763 1.428.775.31.005.71.188.892.406.208.25.225.397.048.397-.155 0-.355-.12-.445-.265-.09-.145-.29-.265-.445-.265-.186 0-.178.125.026.37.425.513 2.644 1.19 3.549 1.084.69-.082 1.52.427 1.798 1.102.055.132.814.788 1.687 1.458 2.16 1.656 3.614 3.112 3.421 3.424-.185.3.386 1.24 1.323 2.178.458.457.617.854.532 1.323-.067.368 0 .743.145.834.147.09.267.396.267.679 0 .282.11.513.244.513.27 0 .386 6.309.128 6.981-.09.233-.244.374-.343.313-.099-.061-.195.088-.214.332-.069.902-.553 2.392-.971 2.99-.237.338-.431.834-.431 1.103 0 .986-2.85 4.48-3.704 4.544-.073.005-.49.262-.927.57a17.97 17.97 0 0 1-1.852 1.096c-.582.295-1.283.784-1.557 1.088-.275.303-.93.63-1.455.725-.526.095-1.411.402-1.967.682-.89.447-1.192.473-2.514.215-.826-.162-1.74-.394-2.032-.518a45.668 45.668 0 0 0-1.381-.544c-.777-.292-1.513-.83-2.786-2.033-.286-.271-.463-.319-.463-.125 0 .235-.13.231-.527-.017-.33-.205-.472-.502-.38-.79.15-.478-.62-1.772-1.064-1.787-.138-.005-.108.135.066.31.624.623.305.82-.344.21-.364-.34-.661-.906-.661-1.255 0-.349-.179-.813-.397-1.03-.503-.504-.506-1.173-.009-1.83.38-.503.39-.501.397.065.014.964.538.994.542.032.007-1.56 1.295-4.336 1.704-3.673.096.156.05.284-.105.284-.154 0-.28.115-.28.256 0 .14.178.188.397.104.218-.084.397-.035.397.11 0 .144-.239.324-.53.4-.29.076-.529.332-.529.57 0 .343.103.375.512.156.282-.15.623-.274.759-.274.254 0 1.627 1.895 1.96 2.706.366.892 4.484 2.264 5.28 1.76.194-.123.293-.235.22-.248-1.743-.32-1.62-.472.348-.423 1.244.03 1.844-.075 2.203-.387.27-.235.648-.372.838-.303.47.17 1.427-.734 1.254-1.183-.076-.199-.02-.289.123-.2.144.09.262.033.262-.125 0-.157.415-.89.922-1.627.985-1.432 1.497-2.91 1.427-4.12-.024-.41-.012-.863.026-1.009.17-.656-.027-1.455-.359-1.455-.2 0-.522-.19-.715-.423-.294-.354-.284-.46.066-.655.374-.21.376-.354.022-1.43-.216-.658-.499-1.196-.627-1.196s-.233-.191-.233-.425c0-.48-1.411-2.371-2.315-3.101-.33-.266-.747-.624-.928-.797-.337-.32-1.217-.607-4.695-1.528-1.514-.402-2.455-.49-3.968-.375-2.353.179-4.367.59-5.321 1.089-.38.198-.754.297-.83.22-.278-.277-2.839.752-3.58 1.438a92.49 92.49 0 0 1-1.4 1.267c-.354.31-1.18 1.18-1.834 1.93a5828.6 5828.6 0 0 0-2.957 3.39c-.39.447-.642.877-.563.957.08.08-.092.602-.383 1.16-.29.557-.61 1.384-.71 1.837-.099.453-.408 1.27-.685 1.815-.539 1.056-.486 1.512.147 1.27.214-.083.404-.048.422.077.13.869.203 1.92.317 4.562.072 1.657.243 3.085.38 3.175.138.09.399.615.579 1.168.54 1.658 2.382 5.026 3.213 5.874a18.745 18.745 0 0 1 1.326 1.528c.303.404 1.224 1.208 2.047 1.786.824.579 2.33 1.644 3.35 2.368 1.304.927 2.11 1.317 2.724 1.322.48.004 1.223.188 1.651.41 1.518.784 4.777 1.272 8.653 1.295 3.444.02 4.524.184 3.31.501-.282.074-.175.133.272.152.433.018.799-.133.888-.366.097-.251.507-.399 1.117-.401.53-.002 1.5-.195 2.154-.43.655-.233 1.705-.44 2.333-.459 1.128-.033 1.133-.037.397-.342l-.746-.308.662-.256c2.406-.929 2.766-1.138 2.377-1.384-.3-.19-.215-.25.352-.253.41-.002.986-.132 1.28-.29.294-.157.595-.225.67-.15.075.075-.471.444-1.213.82-1.401.71-1.787 1.113-.754.787 1.031-.325 5.27-2.83 5.41-3.198.075-.193.245-.283.379-.2.134.082.21.004.17-.174-.04-.179.345-.602.854-.942 1.444-.961 3.053-2.661 2.971-3.139-.024-.146.6-1.094 1.39-2.107 1.473-1.893 1.783-2.82.401-1.2-.424.497-.836.838-.916.759-.198-.198 1.1-2.65 1.664-3.14.25-.219.796-.993 1.213-1.72.416-.728 1.05-1.717 1.407-2.198.465-.625.603-1.064.485-1.536-.105-.419.021-1.02.345-1.639 2.092-4.003 3.013-7.576 2.874-11.15-.045-1.16-.166-2.192-.27-2.295-.102-.104-.187-.728-.187-1.387 0-.66-.323-2.217-.717-3.462-.394-1.244-.721-2.382-.727-2.527-.006-.146-.19-.41-.408-.587-.218-.177-.314-.326-.212-.33.303-.015-.547-1.824-1.524-3.243-.955-1.389-1.19-2.091-.513-1.529.324.27.397.253.397-.089 0-.23-.774-1.215-1.72-2.19-.946-.974-1.72-1.872-1.72-1.995s-.152-.224-.338-.224c-.428 0-1.866-1.557-2.048-2.217-.075-.274-.632-.75-1.237-1.058-.606-.309-1.159-.771-1.229-1.028-.07-.256-.55-.643-1.066-.858-.516-.216-1.152-.619-1.413-.895-.614-.652-2.987-1.97-3.187-1.77-.084.084.005.154.2.154.193 0 .289.063.212.14-.2.2-1.796-.747-1.8-1.067-.006-.492-1.846-1.523-3.334-1.869-.814-.189-1.686-.53-1.938-.758-.252-.229-.77-.415-1.15-.415-.38 0-.757-.108-.839-.24-.081-.132-.386-.177-.677-.101-.29.076-.529.02-.529-.126 0-.145-.528-.397-1.175-.56-.646-.163-1.248-.415-1.338-.56-.09-.146-.45-.265-.8-.265-.35 0-1.18-.184-1.842-.41-1.34-.454-2.038-.288-1.277.304.437.34.421.353-.182.143-.364-.127-1.376-.313-2.25-.413-2.39-.273-3.348-.465-3.178-.635.084-.084.715-.125 1.401-.09.919.046 1.144-.01.852-.208-.436-.297-2.359-.373-3.02-.119-.23.088-.341.283-.248.433.11.178-.142.213-.73.1-1.663-.32-4.883-.477-4.517-.222.237.166-.145.295-1.194.405-.847.089-2.046.34-2.663.557-.977.345-1.122.346-1.122.01 0-.427-.415-.519-.648-.143-.082.134-.016.287.147.341.162.054-.715.428-1.95.83-2.16.702-4.135 1.698-2.6 1.31.468-.118.582-.073.43.172-.124.201-.53.282-1.033.205-.455-.07-1.126.03-1.49.221a6.151 6.151 0 0 1-1.33.489c-.367.076-1.494.799-2.506 1.605-1.011.805-1.943 1.465-2.072 1.465-.128 0-.473.305-.766.677-.325.412-.69.617-.936.523-.46-.177-1.65.516-1.65.962 0 .164-.417.702-.926 1.197-.51.495-.926 1.072-.926 1.284 0 .21-.127.384-.283.384-.17 0-.209-.231-.096-.586.114-.36-.499.123-1.594 1.257-1.895 1.962-5.171 6.626-5.171 7.361 0 .243-.104.648-.231.901-1.195 2.373-1.478 2.893-1.763 3.238-.18.218-.412.791-.515 1.274-.103.483-.354.942-.559 1.02-.204.08-.372.408-.372.731s-.283 1.293-.63 2.154c-.346.862-.835 2.58-1.085 3.816-.548 2.705-.612 3.005-.672 3.175-.026.073-.026.529.001 1.013.03.537-.112 1.002-.363 1.191-.532.4-.765 2.28-.346 2.797.25.309.246.35-.014.194-.197-.118-.332-.059-.334.148-.002.19-.08.632-.174.983-.12.446-.079.58.136.447.169-.104.306-.063.306.091s-.116.28-.259.28c-.446 0 .152 8.228.799 10.98.17.728.305 1.532.299 1.786-.007.255.1.463.236.463.137 0 .248.238.248.53 0 .29.106.529.236.529.216 0 .497 1.13.635 2.554.03.314.145.515.254.447.109-.067.198.176.198.54 0 .363.112.73.248.814.136.084.45.538.699 1.008 1.381 2.619 1.948 3.797 1.955 4.067.005.167.663 1.27 1.464 2.453.8 1.182 1.455 2.262 1.455 2.4 0 .137.22.368.488.512.27.143.69.786.935 1.428.25.654.93 1.602 1.549 2.157.606.545 1.645 1.748 2.307 2.674 1.788 2.502 5.55 6.832 6.125 7.05.276.104.502.29.502.412 0 .404 4.966 6.122 6.598 7.597a51.504 51.504 0 0 1 2.067 1.987c.492.509 1.051.894 1.243.855.192-.039.724.378 1.182.926.459.548 1.515 1.751 2.347 2.673.832.922 1.49 1.756 1.465 1.852-.026.097.123.271.33.388.209.116.379.384.379.595 0 .21.162.384.36.384.514 0 2.762 2.04 3.217 2.921.212.41 1.667 2.033 3.234 3.608 1.567 1.575 3.26 3.37 3.764 3.988.504.618 1.016 1.124 1.139 1.124s.15-.119.06-.264c-.09-.146-.036-.265.121-.265.163 0 .223.257.14.595-.116.48.24.97 1.848 2.529 1.095 1.063 1.992 2.038 1.992 2.165 0 .127.238.307.529.4.29.092.532.368.536.613.007.454 1.683 2.43 2.06 2.43.115 0 .35.14.522.313.495.495 1.48.45 1.858-.088.19-.27.503-.49.695-.49.192 0 .498-.179.679-.397.181-.218.584-.397.895-.397.311 0 .87-.283 1.244-.629.373-.346.961-.719 1.307-.828.347-.11.793-.363.992-.562.2-.2.529-.362.732-.362.208 0 .307-.162.228-.37-.079-.204-.002-.457.168-.563.235-.145.23-.242-.02-.397-.232-.143-.102-.327.435-.613.421-.225 1.182-.778 1.692-1.23.51-.452 1.538-1.117 2.287-1.476.748-.36 1.68-.907 2.072-1.215 1.313-1.032 4.495-3.02 5.43-3.39a7.585 7.585 0 0 0 1.674-.981c.412-.337.897-.613 1.078-.613.182 0 1.572-.692 3.089-1.536 1.517-.845 3.442-1.87 4.277-2.28.862-.42 1.445-.86 1.348-1.017-.101-.165-.042-.196.148-.08.34.21 1.358-.181 3.766-1.448 1.472-.774 2.145-.97 2.017-.585-.037.11.053.199.198.199.146 0 .236-.086.201-.19-.088-.266.826-.723 1.708-.853.405-.06 1.094-.217 1.53-.348.437-.132 1.196-.15 1.686-.04.491.11 1.027.16 1.191.113.966-.28 1.286-.43 1.167-.548-.073-.073-.477-.004-.898.155-.49.186-.668.191-.495.017.34-.344 3.872-1.099 3.68-.786-.212.34.456.288 3.567-.284 2.906-.533 7.698-.852 7.698-.512 0 .107-.209.249-.463.315-.255.067.072.148.727.182a39.34 39.34 0 0 1 2.05.16c.474.054.86-.019.86-.162 0-.144.268-.26.596-.258.442.003.501.064.23.235-.332.211 2.654.547 4.826.543.416 0 1.294.3 1.951.667.658.367 1.454.668 1.77.668.317 0 .689.106.827.237.138.13.668.314 1.178.408l.926.172-1.009-.64c-.555-.352-2.01-.91-3.235-1.238-1.224-.33-2.17-.69-2.1-.8.137-.224 2.943.473 5.02 1.247 2.041.759 3.635 1.733 3.243 1.982-.264.168-.265.219-.002.248l.617.07c.157.019.438.242.625.497.186.254.563.463.838.464.275 0 .808.21 1.185.463.377.254 1.568 1.05 2.646 1.768 1.078.718 2.116 1.522 2.307 1.786.19.264.487.479.661.477.174 0-.423-.715-1.325-1.587-.902-.872-1.706-1.585-1.786-1.585-.08 0-.383-.239-.674-.53-.84-.84-.077-.614 1.117.331 1.913 1.514 4.152 3.998 4.767 5.287.352.736.777 1.254 1.033 1.257.239.003.503.183.587.401.083.219.01.397-.163.397-.174 0-.044.19.287.422.33.232.552.56.492.728-.06.168.266.841.725 1.496.46.655 1.119 1.905 1.465 2.778.346.873.723 1.651.836 1.728.114.078.404.852.644 1.72 2.18 7.89 2.386 9.37 2.33 16.759-.021 2.69.06 4.446.194 4.233.183-.29.23-.274.234.078.002.243-.13.486-.294.54-.369.123-.795 2.69-.467 2.812.13.048.236.204.236.346s-.106.193-.235.113c-.305-.188-.551.757-.556 2.132-.002.64-.166 1.227-.397 1.42-.217.179-.333.426-.257.548.075.121-.097.733-.383 1.359-1.076 2.353-1.313 3.089-1.028 3.184.323.108-.458 1.79-.83 1.79-.272 0-2.106 2.49-2.31 3.135-.076.24.227.02.673-.49.446-.509.814-1.06.818-1.224.004-.164.185-.446.404-.628.612-.508.516.306-.133 1.131-.29.37-.529.789-.529.93 0 .142-.424.582-.943.977-.52.396-.88.785-.8.863.078.08.324-.007.546-.191.222-.184.403-.262.403-.173 0 .3-.909 1.226-1.203 1.226-.502 0-1.495 1.252-1.397 1.762.074.382.228.27.716-.52.342-.553.673-.954.735-.892.164.163-.794 2.017-1.046 2.025-.116.004-.513.334-.881.734-.369.4-.594.579-.501.397.417-.816-.432-.22-1.102.773-.41.607-1.48 1.812-2.377 2.678-1.052 1.014-1.58 1.715-1.482 1.97.115.3.02.353-.395.22-.301-.095-.624-.049-.717.103-.094.151.015.275.242.275.266 0 .412.24.412.676 0 .549-.228.778-1.206 1.21-.663.294-1.273.707-1.354.92-.087.226-.34.324-.613.237-.31-.098-.508.018-.595.349-.076.293-.458.562-.928.656-.44.088-1.246.463-1.792.834-1.205.818-2.2.94-1.184.145.363-.285.79-.52.95-.523.283-.006.902-1.11.902-1.608 0-.14-.24-.105-.533.078-.292.183-.478.472-.413.643.11.284-2.682 2.513-4.09 3.267-.479.256-.522.366-.226.576.272.192.213.225-.228.128-.38-.083-.596-.005-.596.214 0 .189-.192.417-.426.507-.305.117-.383.05-.273-.236.084-.22.048-.4-.081-.4-.13 0-.423-.072-.653-.16-.266-.103-.419-.018-.419.23 0 .342-1.324.865-1.918.76-.11-.02-.434.199-.721.486-.564.564-.672.594-3.843 1.06-1.164.17-2.386.374-2.715.452-.49.116-.566.056-.417-.331.148-.386.088-.434-.328-.264-.28.115-.709.266-.954.337-.244.07-.383.287-.31.48.106.273-.212.338-1.406.289-1.025-.043-1.52-.17-1.477-.379.045-.216-.447-.314-1.574-.314-1.61 0-1.886.35-.476.603.562.1.535.124-.186.154-.555.024-.94-.123-1.116-.426-.213-.366-.272-.38-.282-.067-.009.308-.06.32-.228.057-.232-.365-3.112-.68-3.579-.392-.428.264-4.878.078-5.677-.237-.658-.26-.67-.293-.177-.476.506-.188.503-.205-.086-.392-.339-.107-.686-.125-.773-.038-.086.086-.345-.002-.575-.197-.23-.195-.776-.483-1.212-.64l-2.778-1.001c-2.831-1.02-4.763-1.983-4.763-2.375 0-.186-.188-.41-.418-.498-.601-.23-.696-.2-.48.149.13.211.044.253-.27.132-.255-.097-.568-.177-.697-.177-.13 0-.177-.152-.105-.337.117-.307-2.356-1.92-3.677-2.4-.269-.096-.55-.414-.626-.704-.076-.29-.303-.528-.504-.528-.202 0-.366-.117-.366-.26 0-.142-.298-.334-.662-.425-.364-.091-.661-.272-.661-.402s-.126-.236-.28-.236c-.155 0-.207.12-.117.265.09.145-.022.264-.25.264-.226 0-.412-.17-.412-.378 0-.209-.379-.65-.842-.979-.68-.484-.809-.513-.67-.15.11.286.043.45-.185.45-.197 0-.422-.248-.501-.55-.103-.394-.317-.525-.759-.463-.458.064-.635-.056-.694-.473-.084-.585-1.035-1.16-1.917-1.16-.793 0-.616.383.4.868.506.24 1.13.626 1.39.855 1.32 1.17 5.389 3.55 9.023 5.28 1.066.507 1.87 1.032 1.786 1.167-.204.33-1.22.046-1.386-.385a.364.364 0 0 0-.466-.216c-.183.07-1.572-.473-3.086-1.207-1.515-.734-2.903-1.335-3.085-1.335-.182 0-.557-.227-.834-.504-.276-.276-.782-.591-1.124-.7-.707-.223-2.124-1.234-3.21-2.29-.463-.45-.896-.655-1.167-.551-.351.134-.313.209.207.402.59.22.602.258.156.508-.344.194-.469.547-.437 1.24.024.532.033 1.43.019 1.993-.023.898-.077.982-.44.681-.36-.299-.392-.26-.25.309.19.756.263 3.963.158 6.92-.047 1.33-.204 2.189-.445 2.43-.491.49-.476.962.025.77.218-.084.397-.02.397.14 0 .161-.251.293-.558.293-.398 0-.512.119-.397.417.088.229-.019.594-.237.812-.433.433-.546 1.012-.15.767.136-.084.322-.031.413.116.091.148.06.27-.071.27-.234 0-.93 1.2-.997 1.72-.172 1.338-.546 2.301-1.184 3.049-.417.488-.693.99-.615 1.117.079.127-.27.61-.775 1.075-.552.507-1.136 1.442-1.464 2.343-.497 1.366-1.028 2.185-2.187 3.367-.23.234-.7.901-1.045 1.484-.884 1.49-3.179 4.1-3.605 4.1-.197 0-.357.141-.357.313 0 .54-2.744 2.868-2.966 2.515-.13-.208-.882.376-2.233 1.737-1.12 1.127-2.186 2.05-2.368 2.05-.183 0-.55.276-.815.613-.265.337-.541.627-.614.645-.996.235-2.166 1.094-1.955 1.435.073.12-.16.218-.521.218-.36 0-.695.093-.743.206-.125.293-3.4 2.44-3.723 2.44-.152 0-.125-.172.063-.397.399-.482-.023-.546-.812-.123-.294.157-.511.17-.511.028 0-.44 3.645-2.75 4.34-2.75.372 0 .826-.179 1.007-.398.288-.346.21-.373-.59-.208-.905.186-.91.182-.326-.246.328-.239.594-.577.592-.75-.003-.23-.057-.235-.199-.016-.107.165-.432.348-.723.407-.31.063-.513.3-.49.572.026.317-.21.515-.738.62-.427.086-.92.359-1.097.607-.177.249-1.292 1.01-2.479 1.694-1.186.683-2.302 1.416-2.48 1.63-.177.213-.506.388-.73.388-.225 0-.33.078-.235.174.18.18-.287.887-.581.88-.091-.002-.332-.109-.534-.237zm8.04-3.46c.092-.15-.014-.194-.25-.104-.458.176-.542.366-.161.366.137 0 .322-.118.41-.262zm3.871-2.847c.33-.42.32-.43-.1-.1-.254.2-.462.408-.462.463 0 .218.217.078.562-.363zm6.35-6.88c.33-.419.32-.428-.1-.1-.254.2-.462.409-.462.464 0 .218.217.077.562-.363zm8.802-13.978c.238-.62.195-1.433-.076-1.433-.286 0-.557.653-.557 1.344 0 .614.41.671.633.09zm1.368-9.244c-.11-.589-.054-.916.174-1.007.211-.085.164-.144-.125-.157-.376-.017-.463.205-.463 1.185 0 .803.097 1.147.289 1.028.171-.106.222-.531.125-1.05zm36.363-1.45c0-.145-.126-.264-.28-.264-.154 0-.206.119-.116.264.09.146.216.265.28.265.064 0 .116-.12.116-.265zm-36.067-.578c-.084-.212-.147-.149-.16.16-.011.278.051.435.14.347.087-.088.097-.316.02-.507zm39.375.314c-.09-.146-.342-.265-.56-.265-.219 0-.324.12-.234.265.09.145.342.264.56.264.219 0 .324-.119.234-.264zm-1.263-.425c-.087-.088-.316-.097-.507-.02-.21.084-.148.147.16.16.28.01.435-.052.347-.14zm-1.78-.341c-.218-.122-.754-.298-1.19-.391l-.794-.17.661.39c.364.213.9.39 1.19.39.424.001.45-.043.133-.22zm-3.704-.557c0-.146-.186-.265-.413-.265-.227 0-.339.12-.249.265.09.145.276.264.413.264.137 0 .249-.119.249-.264zm-114.587-.36c-.312-.269-1.593-.429-1.44-.18.094.151.481.275.86.275.38 0 .64-.043.58-.095zm18.543-.755c0-.146-.188-.192-.418-.104-.23.088-.558.162-.728.165-.19.002-.165.095.064.24.428.271 1.082.09 1.082-.301zm1.202.074c-.096-.155-.301-.282-.456-.282-.176 0-.156.152.053.403.363.437.687.34.403-.12zm1.108.087c-.088-.088-.316-.097-.507-.02-.212.084-.149.146.16.16.278.01.435-.052.347-.14zm-13.422-.37c0-.145-.268-.255-.596-.245-.568.018-.57.029-.066.246.291.125.559.236.595.246.037.01.067-.1.067-.246zm7.739.09a1.021 1.021 0 0 0-.662 0c-.182.074-.033.134.33.134.365 0 .514-.06.332-.134zm96.771-.019c-.218-.084-.933-.38-1.587-.657-.655-.278-1.072-.386-.927-.24.476.476 1.84 1.089 2.382 1.069.384-.014.42-.061.132-.172zm-101.468-.335a.615.615 0 0 0-.478-.26c-.19.002-.157.106.081.26.509.329.6.329.397 0zm-6.056-.338c.105-.105.023-.203-.183-.218-1.347-.1-2.305-.212-2.817-.332-.324-.076-.651-.038-.726.083-.166.269 1.108.619 1.46.4.139-.085.252-.036.252.11 0 .295 1.713.259 2.014-.043zm12.803-.19c.328-.213.305-.255-.132-.243a3.463 3.463 0 0 0-1.058.242c-.485.208-.474.229.132.242.364.008.84-.1 1.058-.242zm90.95-.417c-.4-.217-.727-.51-.727-.65 0-.141-.119-.257-.265-.257-.5 0-.264.713.331 1 .909.438 1.49.357.662-.093zm-108.699-.21c-.06-.054-.586-.166-1.169-.249l-1.058-.152 1.058.346c.939.307 1.484.332 1.169.055zm136.132-1.2c-.07-.07-.332.088-.583.35-.437.456-.431.461.126.127.32-.193.526-.408.457-.477zm-27.763-.555c-.09-.146-.283-.265-.428-.265-.146 0-.191.12-.101.265.09.145.282.264.428.264.145 0 .19-.119.101-.264zm-26.675-.843c-.084-.211-.147-.149-.16.16-.01.278.052.435.14.347.087-.088.097-.316.02-.507zm74.927-1.725c-.054-.135-.515.047-1.024.406-.51.358-.718.578-.463.488.513-.18.603.074.2.565-.144.175.109-.026.561-.447.453-.422.78-.877.726-1.012zm-47.59.842c0-.209-1.376-.69-1.53-.536-.075.074.15.248.499.387.745.299 1.03.34 1.03.149zm-2.646-1.185c-.702-.548-1.059-.658-1.059-.327 0 .211.998.772 1.455.818.146.015-.033-.206-.396-.49zm-24.607-.529c0-.145-.126-.264-.28-.264-.154 0-.206.119-.117.264.09.146.216.265.28.265.065 0 .117-.12.117-.265zm47.295.083a2.171 2.171 0 0 0-.926 0c-.255.066-.047.12.463.12.509 0 .717-.054.463-.12zm4.3-.207c1.09-.191 1.779-.36 1.529-.376-.672-.042-.286-.765.405-.76 2.157.013 4.984-.475 7.722-1.334.823-.258 3.764-1.624 4.232-1.966.146-.107 1.09-.745 2.099-1.419 1.008-.674 2.198-1.574 2.646-2 .447-.428 1.11-.958 1.474-1.18.872-.53 5.339-6.907 6.373-9.097 1.021-2.162 1.78-4.216 2.25-6.085.588-2.344.382-2.443-.276-.133-.332 1.165-.914 2.758-1.293 3.542-.38.784-.626 1.529-.548 1.656.078.126-.044.302-.271.389-.228.087-.414.327-.414.532 0 .205-.466 1.14-1.035 2.077-3.144 5.175-7.843 9.838-9.691 9.617-.698-.083-.682-.112.572-.984.71-.494 1.654-1.268 2.098-1.72a33.304 33.304 0 0 1 1.588-1.497c1.277-1.107 4.22-4.467 4.22-4.819 0-.18.208-.482.462-.672.255-.19.463-.577.463-.86 0-.282.179-.514.397-.514.218 0 .415-.149.437-.33.023-.182.054-.459.071-.614.017-.156.235-.596.486-.979.26-.397.348-.761.205-.85-.41-.253 0-.909.477-.762.402.124.401.11-.007-.153-.372-.24-.4-.427-.167-1.095.18-.515.412-.755.646-.665.411.158.432.109.205-.482-.088-.23-.266-.35-.397-.27-.34.21-.288-.357.169-1.863.22-.724.342-1.465.273-1.645-.07-.181-.022-.393.104-.471.127-.079.282.007.345.19.177.515.475-2.992.343-4.034-.065-.509-.24-1.63-.39-2.493-.151-.862-.213-1.814-.14-2.116.074-.303.022-1.144-.116-1.871-.17-.894-.162-1.376.025-1.492.152-.094.195-.303.095-.465-.1-.162-.079-.294.047-.294s.359.328.517.728l.287.727.028-.665c.016-.366-.207-1.106-.496-1.644-.288-.538-.47-1.132-.404-1.32.144-.407-.578-1.435-.83-1.182-.272.272-.887-.353-.887-.901 0-.287-.14-.435-.338-.36-.367.142-1.978-2.945-1.689-3.234.092-.092.487.533.879 1.388.391.855.764 1.395.83 1.2.14-.42-.938-2.674-1.28-2.674-.37 0-2.435-2.857-2.265-3.134.163-.262-.365-.82-.707-.747-.112.024-.903-.64-1.757-1.477-.855-.837-1.4-1.522-1.21-1.522.19 0 .88.596 1.533 1.323.655.728 1.259 1.323 1.344 1.323.084 0-.095-.476-.398-1.058-.304-.582-.65-1.058-.772-1.058-.12 0-.778-.59-1.462-1.312-.683-.722-1.322-1.287-1.42-1.257-.098.03-1.138-.51-2.311-1.202-1.173-.691-2.299-1.255-2.5-1.252-.295.003-.289.056.029.268.277.184.037.211-.794.088-.655-.097-1.474-.396-1.821-.665-.347-.27-.972-.49-1.39-.49-.416 0-.758-.089-.76-.198-.003-.31-1.353-.86-2.114-.86-.378 0-.801-.109-.94-.242-.398-.385-2.879-.686-2.654-.322.125.202-.125.3-.772.3-.57 0-.891-.107-.794-.265.098-.157-.217-.264-.778-.264-.518 0-.941.119-.941.264 0 .146-.186.265-.413.265-.227 0-.35.101-.273.225.077.124-.571.185-1.44.136-.868-.049-1.578.015-1.578.142 0 .293-1.59.537-2.117.325-.253-.101-.061-.227.529-.345l.926-.185-.926.092c-.51.05-1.64.328-2.514.617-.873.289-2.268.726-3.101.972-.833.246-1.826.692-2.206.991-.47.37-1.14.561-2.09.597-1.1.041-1.882.314-3.678 1.285-2.42 1.308-2.694 1.414-2.392.925.105-.169-.334-.011-.976.351-.642.362-1.134.808-1.093.991.083.376-1.237 1.51-1.655 1.422-.149-.032-1.341.833-2.65 1.922-1.308 1.09-2.534 1.92-2.725 1.847-.191-.073-.275-.016-.186.128.09.144-.02.262-.241.262-.222 0-.839.382-1.37.849-.533.467-1.12.871-1.307.899-.187.027-1.001.538-1.81 1.135-.808.597-1.57 1.086-1.695 1.086-.124 0-.46.208-.748.463-1.05.932-2.727 2.183-2.935 2.19-.346.013-2.625 2.092-2.303 2.101.161.004.816-.39 1.455-.876 1.246-.948 2.186-1.5 2.534-1.491.345.009-1.071 1.04-1.437 1.046-.182.003-.331.097-.331.208 0 .262-2.018 1.511-2.449 1.516-.66.008-1.5.671-1.35 1.064.083.216.007.393-.17.393-.176 0-.674.298-1.106.662-.433.363-.986.663-1.23.665-.376.003-.384.04-.052.251.33.208.308.282-.132.468-.96.405-2.239 1.259-2.24 1.495-.005.507-1.444 1.432-2.436 1.565-.98.132-2.229.903-1.936 1.196.072.073.022.264-.113.426-.164.198.47 1.059 1.92 2.608 3.502 3.74 4.55 4.988 4.51 5.375-.02.2.077.295.215.21.36-.223 2.104 1.055 3.608 2.646 1.056 1.116 1.38 1.32 1.739 1.097.359-.224.672-.022 1.691 1.09.688.752 1.935 1.857 2.772 2.456.837.6 1.521 1.265 1.521 1.479 0 .213.104.388.23.388.127 0 .812.46 1.522 1.023s1.802 1.282 2.427 1.599c.624.316 1.355.795 1.623 1.063.523.523 8.445 4.906 10.206 5.647 3.293 1.385 6.938 2.48 9.922 2.978.953.16 1.085.241.661.408-.368.146-.105.215.86.228.764.01 1.389.13 1.389.264 0 .137-.677.193-1.521.126-1.126-.088-1.371-.053-.943.137.893.395 8.45.622 9.103.273.468-.251 2.832-.11 2.569.153-.049.05-.98.17-2.069.268s-2.093.285-2.231.414c-.352.33 1.181.265 3.559-.153zm6.35-2.769c0-.12.743-.48 1.653-.803 2.602-.922 3.716-1.397 4.472-1.912.78-.53 1.134-.615.886-.212-.262.423.562.305.926-.133.18-.218.576-.397.878-.397.398 0 .203.22-.71.798-1.722 1.092-4.427 2.44-4.583 2.284-.071-.07.13-.267.446-.436 1.176-.63.283-.506-1.81.25-1.187.428-2.159.681-2.159.561zm5.82-2.02c0-.073-.238-.005-.53.15-.29.157-.528.344-.528.416 0 .073.238.005.529-.15.29-.156.529-.343.529-.416zm-61.946-21.743c-.33-.42-.32-.43.1-.1.44.345.58.563.363.563-.055 0-.264-.209-.463-.463zm-5.064-5.92c.18-.181.393-.262.474-.18.082.08-.065.229-.326.328-.377.143-.408.113-.148-.148zm3.907-1.555c-.09-.145-.045-.264.1-.264.146 0 .339.119.429.264.09.146.044.265-.101.265-.146 0-.338-.12-.428-.265zm78.06-6.957c-.113-.26-.132-.548-.04-.639.268-.269.484.109.36.63-.109.462-.123.463-.32.01zm-.236-1.906c-.084-.219-.037-.397.104-.397.14 0 .256.178.256.397 0 .218-.047.396-.104.396-.057 0-.172-.178-.256-.396zm-67.094-.331c.022-.301 1.363-1.29 2.036-1.502 1.038-.327.65.302-.629 1.016-1.337.747-1.429.78-1.407.486zm2.896-1.861c0-.115.387-.43.86-.703l.86-.495-.642.702c-.634.695-1.078.899-1.078.496zm3.704-2.02c0-.165 2.822-2.27 3.043-2.27.086 0 .942-.596 1.903-1.324.961-.727 1.859-1.323 1.995-1.323.474 0 .036.617-.737 1.04-.43.234-1.85 1.138-3.159 2.008-3.09 2.056-3.045 2.029-3.045 1.869zm54.763-3.468c-.184-.222-.267-.47-.186-.552.082-.081.282.1.444.404.347.647.218.721-.258.148zm-2.39-2.673c-.501-.528-.743-.908-.537-.845.346.106 1.818 1.805 1.563 1.805-.063 0-.524-.432-1.026-.96zm-43.377.196c0-.146.282-.42.627-.61 3.31-1.823 3.516-1.883 1.25-.36-1.94 1.302-1.877 1.27-1.877.97zm3.704-1.82c0-.501 2.076-1.47 5.82-2.716a80.018 80.018 0 0 0 2.647-.928c1.665-.64 2.116-.712 2.116-.335 0 .205-.7.552-1.68.833-.925.265-2.66.882-3.855 1.371-1.195.49-2.363.816-2.595.727-.272-.104-.358-.057-.24.134.1.163-.029.405-.287.538-.74.378-1.926.61-1.926.376zm37.306-.988c-.183-.221-.212-.397-.065-.397.146 0 .413.179.594.397.184.221.213.397.065.397-.145 0-.413-.179-.594-.397zm-1.653-.284c-.4-.217-.728-.51-.728-.65 0-.475.697-.262 1.323.405.699.743.485.832-.595.245zm-34.114-.7c.141-.14.478-.21.748-.152.364.077.297.143-.257.256-.482.099-.656.062-.49-.104zm1.636-.596c0-.527.449-.74.958-.455.437.244.349.363-.495.663-.3.107-.463.033-.463-.208zm8.47-1.368c.006-.447 2.008-1.131 3.436-1.175 2.234-.067 2.18.041-.264.543-1.237.254-2.458.551-2.712.66-.255.11-.462.096-.46-.028zm-3.297-.323c.33-.3 1.935-.833 2.473-.82.233.004-.226.243-1.021.529-1.616.58-1.815.62-1.452.29zm18.243.04c-.291-.07-.643-.235-.78-.367-.43-.408 1.3-.268 1.854.15.506.383.506.388-.016.366a6.68 6.68 0 0 1-1.058-.15zm-8.665-1.205c.472-.149.86-.373.86-.497 0-.125.208-.225.462-.222.396.003.406.04.067.26-.302.195-.19.258.463.26.472.003.86.113.86.246s-.804.238-1.786.233c-1.609-.008-1.701-.036-.927-.28zm8.268-.723c-.59-.19-.555-.215.33-.239.546-.014.993.093.993.239 0 .302-.377.302-1.323 0zm-1.983-.262c-.092-.15.014-.194.25-.104.458.176.541.366.16.366-.136 0-.32-.118-.41-.262zm-10.254 61.198a2.171 2.171 0 0 0-.926 0c-.255.066-.047.121.463.121s.717-.055.463-.121zm-2.652-.242c-.087-.088-.316-.097-.507-.021-.21.085-.148.147.16.16.28.011.435-.051.347-.14zm13.698-.105.53-.227h-.53c-.29 0-.767.102-1.058.227l-.53.228h.53c.29 0 .767-.103 1.058-.228zm-16.007-.794c0-.145-.209-.264-.463-.264-.436 0-4.114-.976-6.152-1.633-.51-.164-1.215-.486-1.568-.716-.353-.23-1.027-.444-1.499-.474-.828-.053-3.747-1.373-3.09-1.398.178-.007.713.225 1.19.516 1.062.647 1.933.725 1.13.101-.29-.226-1.124-.696-1.851-1.044a32.12 32.12 0 0 1-2.117-1.108c-.437-.261-1.627-.94-2.646-1.507-1.018-.568-2.286-1.369-2.816-1.78-.53-.41-1.08-.747-1.222-.747-.142 0-.856-.476-1.588-1.058-.73-.582-1.463-1.058-1.627-1.058-.483 0-3.742-2.673-3.58-2.935.082-.132.032-.24-.111-.24-.143 0-.78-.398-1.416-.883-.763-.582-1.319-.825-1.634-.715-.548.192-.316.433 1.03 1.068 1.161.548 1.72 1.077 1.72 1.629 0 .268.116.488.259.488.143 0 .91.417 1.707.926.796.51 1.632.926 1.857.926.225 0 .41.126.41.28 0 .154-.15.191-.331.082-.235-.141-.228-.072.024.239.195.24.612.515.926.61.873.265 5.509 3.068 5.345 3.232-.08.08-.687-.246-1.35-.722-.664-.477-1.279-.794-1.367-.706-.19.19-.277.118 1.383 1.135.728.446 1.72.885 2.203.974 1.179.218 3.79 1.8 3.635 2.203-.23.599 4.438 2.444 10.302 4.072 2.99.83 3.307.879 3.307.507zm-39.766-1.918c-.063-.327-.114-.06-.114.596 0 .654.051.922.114.595a3.768 3.768 0 0 0 0-1.19zm39.959 1.23c-.088-.088-.316-.098-.507-.021-.211.084-.149.147.16.16.278.01.435-.052.347-.14zM47.89 179.84c2.45-.667 3.44-1.141 3.44-1.65 0-.342.183-.487.594-.473.328.012.447.081.265.154-.182.074-.33.307-.33.518 0 .28.125.32.462.147.805-.413 1.98-.623 1.793-.321-.422.682 1.225-.146 3.516-1.768.92-.651 2.05-1.242 2.514-1.314.463-.071 1.03-.298 1.26-.503.23-.205.543-.373.695-.373.153 0 .441-.197.641-.438s.72-.609 1.157-.817c1.712-.818 1.984-1 1.984-1.322 0-.183-.126-.334-.28-.334-.154 0-.197-.134-.096-.298.126-.203.264-.157.433.144.221.395.434.339 2.013-.535.972-.538 2.516-1.562 3.433-2.275.916-.714 2.285-1.662 3.042-2.107.758-.446 1.437-.892 1.51-.991.072-.1.52-.452.995-.784.474-.331.803-.7.73-.817-.183-.297 2.721-2.454 3.039-2.257.141.087.196 0 .122-.192-.15-.389 1.155-1.259 1.628-1.087.164.06.364-.145.445-.455.108-.415.283-.52.66-.401.388.123.887-.229 2.068-1.455.857-.89 1.914-1.799 2.351-2.021 1.03-.524 2.249-1.67 2.249-2.113 0-.191.208-.35.463-.353.376-.005.338-.104-.199-.528-.503-.397-.579-.574-.317-.745.25-.163-.06-.53-1.124-1.334-.808-.61-1.469-.976-1.469-.813 0 .162-.476-.156-1.058-.708-.582-.551-1.059-1.15-1.059-1.332 0-.18-.535-.777-1.19-1.324-.655-.547-1.259-1.21-1.342-1.472-.083-.263-.267-.406-.408-.319-.141.087-.788-.357-1.437-.988-.649-.63-1.538-1.341-1.976-1.579-.438-.237-1.042-.743-1.342-1.124-.3-.381-.704-.693-.898-.693-.195 0-.895-.526-1.557-1.169-.661-.643-1.416-1.24-1.678-1.326-.26-.086-1.044-.69-1.74-1.344-.695-.654-1.378-1.188-1.518-1.188-.14 0-.485-.198-.768-.44-.283-.243-1.108-.692-1.834-.999-.726-.307-1.537-.754-1.804-.994-.266-.24-1.111-.75-1.878-1.135-.767-.384-1.329-.805-1.248-.935.08-.13-.245-.437-.722-.682-.478-.245-.928-.52-1.001-.613-.323-.409-1.54-1.029-2.384-1.214a12.463 12.463 0 0 1-1.716-.53c-1.292-.533-3.41-1.249-3.842-1.3a2.173 2.173 0 0 1-.746-.26c-.189-.116-.421-.134-.516-.038-.096.095-.005.277.202.405.288.178.213.273-.324.407-.384.097-.816.103-.959.015-.143-.089-1.124-.225-2.18-.304-1.055-.078-2.044-.22-2.198-.315-.153-.095-.667-.139-1.141-.098-.474.041-1.038-.083-1.251-.276a27.322 27.322 0 0 0-.742-.642c-.78-.645-7.074.274-7.074 1.032 0 .119.12.142.267.051.461-.285 2.643-.4 2.643-.139 0 .137-.446.32-.992.408a26.78 26.78 0 0 0-1.654.32c-.363.088-.765.136-.891.107-.282-.067-2.64.67-3.779 1.18-.458.206-.9.374-.982.374-.421 0-4.264 1.993-4.94 2.563-.432.363-.785.587-.785.498 0-.09-.297.033-.661.271-.364.238-.662.595-.662.792 0 .21-.164.295-.4.204-.462-.177-1.252.38-1.035.731.08.13-.04.308-.268.396-.227.087-.413.337-.413.555 0 .258-.151.34-.43.232-.521-.2-1.156.276-1.161.868-.002.237-.648.996-1.436 1.687-.787.69-1.876 2-2.42 2.91-.543.91-1.132 1.833-1.309 2.052-.176.218-.47.873-.654 1.455-.182.582-.424 1.177-.536 1.323-.461.597-1.263 3.59-1.457 5.435-.27 2.58-.201 6.096.138 6.988.148.39.258 1.087.245 1.55l-.024.844-.256-.89c-.345-1.2-.587-.866-.357.493.135.8.287 1.055.565.948.493-.189.811.625.354.908-.282.174-.258.457.125 1.494.69 1.869 2.334 4.88 3.137 5.746.383.414.768.977.855 1.252.087.275.27.5.405.5.136 0 .247.242.247.538 0 .872.777 1.812 2.425 2.93.849.577 1.544.971 1.544.876 0-.096.387.115.86.469 1.659 1.24 5.572 3.145 5.78 2.815.184-.295 1.562-.003 1.562.33 0 .125-.208.16-.463.078-.368-.118-.386-.094-.089.117.206.146.791.198 1.301.115.787-.127.902-.084.759.289-.115.298-.023.45.286.472.25.019.753.065 1.116.103.364.039.794-.036.955-.167.394-.318 2.014.025 1.872.397-.163.424 10.665.358 12.255-.075zm-.53-.394c0-.056.28-.285.623-.51.778-.509 2.704-.906 2.457-.506-.095.153-.647.359-1.228.457-.58.098-1.122.287-1.204.42-.146.235-.648.343-.648.14zM26.46 177.15c-2.742-1.51-2.124-1.542.727-.036 1.057.558 1.382.854.926.843-.11-.003-.853-.366-1.653-.807zm3.174.547c-.218-.14-.277-.256-.132-.256.146 0 .443.115.661.256.219.141.278.257.133.257-.146 0-.443-.116-.662-.257zm-1.188-.526c-.093-.15.013-.194.249-.104.458.176.542.366.161.366-.137 0-.322-.118-.41-.262zm25.398-.003c.09-.145.282-.264.428-.264.145 0 .19.119.1.264-.09.146-.282.265-.427.265-.146 0-.191-.12-.101-.265zm.926-.227c0-.272.801-.647.986-.462.065.064-.13.25-.434.412-.304.163-.552.185-.552.05zm-31.618-1.89c-.09-.145-.044-.264.101-.264.146 0 .338.119.428.264.09.146.045.265-.1.265-.146 0-.339-.119-.429-.265zm-3.088-2.335c-.994-.994-1.803-1.976-1.798-2.183.005-.232.204-.122.518.285l1.07 1.39c.308.4.682.727.83.727.391 0 1.807 1.05 1.807 1.34 0 .6-.748.12-2.427-1.56zm42.246.748c.09-.146.216-.265.28-.265.065 0 .117.12.117.265 0 .145-.126.265-.28.265-.154 0-.207-.12-.117-.265zm4.126-2.76c.414-.413 4.286-2.796 4.544-2.796.334 0-1.724 1.452-3.364 2.373-.877.492-1.457.7-1.18.424zm-50.16-3.203c-.549-1.097-.926-2.066-.839-2.153.088-.088.268.126.4.475.133.348.613 1.263 1.066 2.032.894 1.516.94 1.64.599 1.64-.125 0-.676-.897-1.225-1.994zm-2.076-4.532a.729.729 0 0 1-.176-.45c0-.166.123-.15.313.04.172.172.252.374.176.45-.075.075-.216.057-.313-.04zm69.806-4.586c.09-.146.216-.265.28-.265.065 0 .117.12.117.265 0 .145-.126.264-.28.264-.154 0-.207-.119-.117-.264zm-70.734-.794c0-.364.06-.513.133-.33.074.181.074.479 0 .66-.073.183-.133.034-.133-.33zm-.264-1.544c-.192-.34-.285-.683-.205-.762.079-.08.021-.374-.129-.655-.311-.582-.055-2.148.314-1.92.134.083.19.586.123 1.119-.066.532.003 1.044.153 1.137.15.093.233.513.184.934l-.09.765zm76.028-1.9c.091-.148.277-.2.412-.117.367.227.299.386-.166.386-.227 0-.337-.121-.246-.269zm-75.372-5.684c.083-.218.199-.397.256-.397.057 0 .104.179.104.397 0 .218-.115.397-.256.397-.141 0-.188-.179-.104-.397zm68.607-2.449c-.218-.255-.74-.733-1.157-1.062-.418-.329-.71-.647-.65-.708.06-.06.704.413 1.43 1.052.725.64 1.196 1.167 1.047 1.172-.15.006-.451-.198-.67-.454zm-67.727-.286c.174-.34.39-.545.478-.457.088.09-.054.367-.317.618-.457.437-.464.43-.161-.16zm.803-2.892c0-.112.42-.797.935-1.522a63.758 63.758 0 0 0 1.357-1.982c.232-.365.722-.89 1.088-1.166l.666-.502-.628.902c-.346.495-.94 1.258-1.32 1.695-.38.436-.959 1.24-1.284 1.786-.58.97-.814 1.197-.814.789zm3.704-3.421c0-.488.949-1.625 1.15-1.38.05.06-.189.514-.53 1.008-.495.718-.62.793-.62.372zm52.52-1.153c-.728-.579-1.601-1.29-1.94-1.578-.34-.288-.735-.524-.876-.524-.142 0-.184-.12-.093-.268.146-.235 4.148 2.614 4.521 3.218.31.5-.363.147-1.612-.848zm.377-.978-.642-.727.728.641c.68.6.849.814.641.814-.047 0-.375-.328-.727-.728zm-49.987-1.228c0-.058.185-.175.411-.262.235-.09.342-.046.249.104-.155.252-.66.372-.66.158zm2.382-1.684c0-.145.178-.412.397-.594.22-.183.396-.212.396-.064 0 .145-.178.412-.396.594-.222.183-.397.212-.397.064zm39.489-.735c-.95-.4-1.108-.657-.397-.644.493.01 1.56.704 1.37.893-.063.062-.5-.05-.973-.25zm-37.637-.504c0-.227.119-.413.264-.413.146 0 .265.112.265.25 0 .136-.12.322-.265.412-.145.09-.264-.023-.264-.25zm33.647-1.263c-2.277-1.232-2.374-1.635-.136-.568.85.406 1.74.707 1.975.67.246-.039.49.164.57.473.193.734-.131.657-2.409-.575zm-33.383-.445c0-.13.196-.31.435-.402.363-.14.38-.101.1.236-.382.459-.535.507-.535.166zm33.338-1.35c-1.334-.605-1.56-.781-1.008-.787.392-.004.79.12.887.275.096.156.347.216.558.135.211-.08.32-.042.24.086-.08.129.152.308.515.4.363.09.66.282.66.424 0 .33.15.373-1.852-.534zm-31.221.264c.518-.335.868-.335.661 0-.09.145-.364.263-.61.26-.386-.003-.393-.04-.051-.26zm2.249-.076c.785-.55 2.249-1.004 2.249-.698 0 .274-.685.578-1.984.882-.737.173-.756.16-.265-.184zm26.541-1.163c.191-.077.42-.067.507.02.088.089-.068.151-.347.14-.308-.013-.371-.076-.16-.16zm-21.331-.373c.144-.438 1.537-.672 1.537-.258 0 .155-.169.282-.375.282-.207 0-.58.079-.83.175-.32.122-.418.063-.332-.199zm19.925-.24c-.09-.146-.506-.265-.926-.265-.806 0-1.282-.39-.726-.595.492-.182 2.387.419 2.513.796.13.39-.625.446-.86.064zm-16.933-.53c.718-.307 3.82-.329 3.338-.024-.202.128-1.154.236-2.117.241-1.199.006-1.583-.063-1.221-.218zm.926-1.524c0-.38 3.182-.69 3.528-.345.2.2-.153.282-1.204.282-.818 0-1.675.072-1.905.16-.23.089-.419.045-.419-.097zm-23.019 53.548c0-.055-.208-.264-.463-.463-.42-.33-.429-.32-.1.1.346.44.563.58.563.363zm53.05-1.628c.436-.358.65-.652.477-.652-.174-.001-.65.292-1.058.651-.966.85-.456.85.58 0zm52.254-.388c0-.114-.408-.283-.906-.377-.499-.094-.953-.31-1.01-.48-.061-.183-.173-.127-.276.142-.114.297-.04.45.216.45.214 0 .389.11.389.244 0 .289.782.5 1.257.34.182-.062.33-.205.33-.319zm-50.667-.53c.09-.146.044-.265-.101-.265-.146 0-.338.12-.428.265-.09.145-.045.264.1.264.146 0 .339-.119.429-.264zm-12.62-.318c.499-.5.37-.788-.213-.476-.29.156-.529.398-.529.538 0 .35.359.32.741-.062zm1.507-.211c.09-.146-.029-.265-.264-.265-.236 0-.355.119-.265.265.09.145.21.264.265.264.055 0 .174-.119.264-.264zm-1.421-.993c.329-.42.32-.429-.1-.1-.255.2-.463.409-.463.463 0 .218.217.078.563-.363zm23.461-.119c.473-.472.385-.723-.213-.608-.87.168-1.16.433-.754.69.477.303.593.293.967-.082zm112.236.053a.265.265 0 0 0-.264-.264.265.265 0 0 0-.265.264.265.265 0 0 0 .53 0zm-66.675-2.088c0-.13-.195-.311-.434-.403-.363-.14-.38-.1-.1.236.381.46.534.507.534.167zm-13.471-2.218c-.28-.735-1.869-2.466-2.18-2.375-.123.037-.224-.072-.224-.242 0-.17-.081-.227-.18-.128-.1.1.28.656.847 1.235.565.58.926 1.054.801 1.054s-.011.238.252.529c.639.706.967.67.684-.073zm-38.353-.655c.329-.42.32-.429-.1-.1-.255.2-.463.408-.463.463 0 .218.217.078.563-.363zm50.37-.066a.615.615 0 0 0-.48-.26c-.189.002-.156.106.082.26.509.329.6.329.397 0zm-48.817-1.123c0-.148-.175-.119-.396.065-.219.18-.397.448-.397.594 0 .147.175.119.397-.065.218-.181.396-.449.396-.594zm42.007-5.1c-.619-.657-1.171-1.057-1.227-.889-.098.293 1.73 2.054 2.152 2.075.11.005-.306-.528-.925-1.186zm-.984-2.22c-.162-.304-.47-.553-.683-.553-.213 0-.387-.106-.387-.236s-.179-.305-.397-.389c-.242-.092-.397 0-.397.237 0 .213.135.388.3.388.165 0 .589.311.94.691.721.777 1.072.699.624-.139zm-2.393-1.702c0-.05-.256-.318-.568-.596-.565-.501-.566-.5-.255.092.258.491.823.837.823.504zm-105.918-3.927c-.084-.211-.147-.149-.16.16-.01.278.052.435.14.347.088-.088.097-.316.02-.507zm190.717.05c.09-.146.037-.265-.117-.265s-.28.119-.28.264c0 .146.052.265.116.265.065 0 .19-.12.28-.265zm-8.154-1.638c-.085-.211-.147-.148-.16.16-.011.279.051.435.14.347.087-.088.096-.316.02-.507zm-182.03-.673c-.068-.257-.127-.11-.133.326-.005.436.05.647.122.468.073-.18.077-.536.01-.794zm190.5-1.558c.03-1.107 0-1.96-.064-1.897-.247.248-.646 2.977-.502 3.433.311.978.516.423.566-1.536zm-8.113-.762c.099-4.066.012-5.689-.304-5.689-.165 0-.234.234-.157.53.076.29.023.529-.117.529s-.181.12-.09.266c.09.147.217 1.336.282 2.642.104 2.109.062 2.41-.377 2.685-.48.3-.479.327.044.928.296.34.566.59.6.554.034-.035.088-1.135.12-2.445zm-186.624-1.77c-.084-.21-.147-.148-.16.16-.011.28.052.436.14.348.087-.088.097-.316.02-.507zm194.799-1.074c-.016-.72-.056-.774-.246-.331-.314.73-.314 1.19 0 1.19.145 0 .256-.386.246-.86zm-193.4-1.603c-.008-.77-.04-.803-.37-.37-.197.262-.3.707-.225.99.2.767.604.346.595-.62zm193.476-1.692c-.132-.262-.158-.773-.06-1.137.1-.364.078-.945-.048-1.292-.125-.346-.157-.852-.07-1.124.085-.272.029-.494-.126-.494a.282.282 0 0 0-.283.28c0 .154-.119.206-.264.116-.328-.202-.334.25-.022 1.456.448 1.731.612 3.508.307 3.32-.157-.097-.285 0-.285.216 0 .217.208.435.463.485.538.106.782-1.042.388-1.826zm-193.203.054c0-.219-.1-.397-.22-.397-.122 0-.221.178-.221.397 0 .218.099.396.22.396s.22-.178.22-.396zm-4.77-1.853c0-.145-.116-.086-.257.133-.141.218-.257.516-.257.661 0 .146.116.086.257-.132.14-.218.256-.516.256-.662zm188.704.075c-.19-.19-.314-.205-.314-.04 0 .354.313.667.49.49.075-.075-.004-.277-.176-.45zm-111.054-1.395c-.702-.654-1.76-1.514-2.352-1.91a24.577 24.577 0 0 1-2.044-1.568c-.533-.466-1.247-.983-1.587-1.15-.869-.425.663.91 3.641 3.175 1.325 1.007 2.56 2.014 2.745 2.236.184.223.457.405.605.405.147 0-.306-.535-1.008-1.188zm-76.055-.96c0-.145-.12-.19-.265-.1-.145.09-.265.282-.265.427 0 .146.12.191.265.101.146-.09.265-.282.265-.428zm195.61-.333c.2-.52-.106-2.529-.413-2.719-.36-.222-.751.489-.46.838.13.158.266.727.303 1.266.067.999.319 1.27.57.615zM5.023 139.78c-.003-.471-.052-.505-.26-.183-.337.522-.337 1.134 0 .926.145-.09.262-.424.26-.743zm186.006-1.622c0-.065-.119-.19-.264-.28-.146-.09-.265-.038-.265.116s.12.28.265.28c.145 0 .264-.052.264-.116zm-176.64-.559c.09-.235.045-.342-.105-.249-.143.09-.261.274-.261.41 0 .381.19.298.365-.16zm59.034-.91c-.09-.145-.424-.4-.743-.568-.577-.303-.578-.301-.077.263.505.568 1.126.799.82.304zm20.847-.638c-.261-.35-.524-.588-.584-.53-.109.104.761 1.166.956 1.166.057 0-.11-.286-.372-.636zm105.318-.489c-.088-.473-.336-1.038-.551-1.256-.347-.352-.37-.322-.196.264.566 1.909 1.031 2.527.747.992zm-128.15-.33c-.182-.219-.464-.393-.628-.389-.164.005-.067.183.215.397.66.5.83.496.412-.008zm39.603-.199c.847-.577 1.119-.992.649-.992-.126 0-.632.355-1.124.79-1.057.93-.773 1.051.475.202zm-98.24-.609c.09-.235.046-.342-.104-.249-.144.09-.262.274-.262.41 0 .381.19.298.366-.16zm178.493-.383c0-.146-.126-.265-.28-.265-.155 0-.207.12-.117.265.09.146.216.265.28.265.064 0 .117-.12.117-.265zm-78.471-.434c.139-.363.1-.38-.237-.1-.459.38-.507.534-.166.534.13 0 .31-.195.403-.434zm-44.957-.36a.615.615 0 0 0-.479-.26c-.19.002-.157.106.082.26.508.329.6.329.397 0zm-54.682-1.084c.49-.784.272-.843-.298-.08-.261.35-.38.635-.262.635.117 0 .37-.25.56-.555zm174.036-.696c-.269-.27-.49.136-.27.493.167.27.23.27.319 0 .061-.183.04-.405-.049-.493zm-120.942.193c-.09-.146-.484-.263-.875-.26-.557.002-.626.06-.316.26.523.338 1.4.338 1.191 0zm-49.61-.56c0-.146-.118-.192-.264-.102-.145.09-.264.283-.264.428 0 .146.119.191.264.101.146-.09.265-.282.265-.428zm181.902.295c.09-.145.037-.264-.117-.264s-.28.119-.28.264c0 .146.052.265.117.265.064 0 .19-.12.28-.265zm-119.724-.529c0-.146-.126-.265-.28-.265-.154 0-.207.12-.117.265.09.146.216.265.28.265.064 0 .117-.12.117-.265zM17.33 130.6c.09-.145.038-.264-.116-.264-.155 0-.28.119-.28.264 0 .146.052.265.116.265s.19-.119.28-.265zm59.013-1.305c-.096-.155-.3-.282-.456-.282-.175 0-.155.152.054.403.363.437.687.34.402-.12zm-2.317-1.208c-.535-.364-1.116-.662-1.29-.662-.443 0 1.389 1.273 1.872 1.3.215.013-.046-.274-.582-.638zm-8.939-.132c0-.146-.126-.265-.28-.265-.154 0-.206.12-.116.265.09.145.216.264.28.264.064 0 .116-.119.116-.264zm8.996-1.146c0-.369-2.365-2.03-2.89-2.03-.166 0 .3.536 1.038 1.191 1.388 1.233 1.852 1.443 1.852.839zm-38.593-.386c-.19-.063-.473.01-.626.164-.197.196-.093.23.347.116.358-.094.477-.214.28-.28zm14.252-.32c0-.146-.186-.265-.413-.265-.227 0-.339.119-.249.265.09.145.276.264.413.264.137 0 .249-.119.249-.264zm-1.323-.254c0-.226-.639-.54-1.096-.54-.142 0-.191.109-.109.242s0 .292-.183.354c-.182.061.055.123.528.137.473.014.86-.073.86-.193zm-32.123-.737c-.184-.183-.686.19-.686.51 0 .175.152.155.404-.054.221-.184.348-.39.282-.456zm7.815.286c.33-.4.307-.41-.232-.123-.616.328-.768.563-.363.563.127 0 .395-.198.595-.44zm22.456.201c0-.356-1.545-.838-1.73-.539a.537.537 0 0 0 .01.513c.203.33 1.72.353 1.72.026zm148.875-1.212c-.68-.652-1.238-1.327-1.238-1.5 0-.171-.065-.247-.146-.166-.08.08.218.718.662 1.418.444.7.81 1.101.815.89.006-.283.078-.262.278.081.148.255.404.463.568.463.165 0-.258-.533-.939-1.186zm-177.236-.467c.868-.931.221-.978-.822-.06-.615.541-.682.714-.397 1.024.24.26.373.28.442.068.055-.168.405-.632.777-1.032zm51.115 1.135c0-.385-3.686-2.118-4.138-1.945-.528.203-.258.434 1.624 1.388 1.612.816 2.514 1.016 2.514.557zm-6.297-2.614c-.539-.2-1.336-.516-1.773-.701-.916-.389-3.358-.696-3.175-.4.13.211 2.506.91 2.844.837.11-.024.199.062.199.19 0 .24.82.58 1.662.692.259.034.549.139.643.234.095.094.264.023.376-.158.138-.224-.11-.446-.776-.694zm-42.228-.307c.194 0 .475-.23.625-.51.246-.46 2.805-1.871 3.394-1.871.133 0 .813-.304 1.512-.676 1.09-.58 4.947-1.93 6.614-2.316.345-.08.24-.133-.303-.153-.458-.017-1.648.212-2.646.508-4.406 1.31-5.559 1.697-6.18 2.08-.809.5-2.674 1.908-3.04 2.295-.147.156-.594.486-.994.734-.4.247-.728.575-.728.728 0 .153.314.03.697-.27.384-.302.856-.55 1.05-.55zm11.433-.391c.07-.07-.092-.21-.36-.312-.288-.111-.526-.06-.589.128-.057.172-.214.246-.349.162-.308-.19-1.298.112-1.298.396 0 .21 2.351-.13 2.596-.374zm1.523-.375c-.166-.268.444-.557 1.173-.557.267 0 .545-.149.619-.33.08-.198.141-.145.154.131.011.255-.118.463-.288.463-.17 0-.254.055-.187.122.198.198 1.295-.163 1.16-.382-.068-.11.785-.185 1.895-.168 1.508.024 2.05-.062 2.145-.337.097-.279-.04-.325-.569-.193-.383.096-.696.063-.696-.075 0-.33-3.986-.114-4.335.236-.148.148-.468.268-.712.268-.51 0-1.118.625-.86.884.261.261.669.21.5-.062zm159.13-.425a.394.394 0 0 0-.39-.397c-.236 0-.328.155-.236.397.084.218.259.397.389.397s.236-.179.236-.397zm-135.732.016c0-.064-.12-.19-.265-.28-.145-.09-.264-.038-.264.116s.119.28.264.28c.146 0 .265-.052.265-.116zm-28.316-1.505c1.094-.293 2.085-.703 2.202-.911.116-.208.414-.37.661-.36.37.016.356.06-.08.247-.931.4.71.317 1.886-.096.564-.198 1.829-.446 2.811-.55.982-.105 1.786-.27 1.786-.368 0-.097 1.388-.202 3.085-.232 3.291-.06 4.645-.447 1.795-.515-.938-.022-1.705.068-1.705.199s-.179.239-.397.239c-.218 0-.397-.101-.397-.225 0-.497-1.572-.331-8.466.894-1.69.3-5.806 1.819-5.95 2.195-.1.263-.01.319.319.193.253-.097 1.355-.417 2.45-.71zm147.811-.1c-.96-.5-1.249-.495-.58.01.282.214.699.388.926.387.227-.001.071-.18-.346-.397zm-119.155-.139c-.244-.217-2.5-.785-3.119-.785-.235 0-.354.119-.264.264.09.146.507.265.926.265.42 0 .824.099.9.22.074.122.502.22.95.22.447 0 .72-.082.607-.184zm100.395.113c-.088-.088-.317-.097-.508-.02-.21.084-.148.146.16.159.28.012.436-.051.348-.139zm16.475-.37c-.218-.14-.754-.25-1.19-.241-.682.012-.72.047-.265.242.291.125.827.234 1.19.242.522.011.578-.04.265-.242zm-120.959-.536c.82-.015-.255-.442-1.603-.636-.687-.1-1.32-.293-1.404-.43-.206-.333-1.182-.32-1.182.015 0 .413-1.22.311-1.587-.132-.388-.467-1.739-.53-2.008-.094-.13.21.008.254.45.144.35-.088.814-.048 1.031.09.217.137.276.252.13.257-.145.004-.086.123.132.264.219.142 1.23.26 2.25.265 1.018.004 2.03.124 2.248.266.219.142.556.2.75.128.193-.071.55-.133.793-.137zm130.749-.522c-.156-.29-.476-.529-.712-.529-.378 0-.372.062.05.53.264.29.584.529.712.529s.106-.239-.05-.53zm-27.814.1c.454-.091.826-.257.826-.37 0-.196-2.112.178-2.351.417-.168.168.56.146 1.525-.047zm-101.738-.61c-.629-.541-6.238-1.632-6.754-1.313-.183.113.121.265.725.362.572.093 1.338.24 1.702.327.364.087.9.135 1.192.106.292-.028.749.11 1.016.305.497.362 2.53.568 2.119.213zm115-.283c0-.146-.268-.263-.595-.26-.482.002-.52.052-.199.26.513.331.794.331.794 0zm-133.35-.62c.946-.155 3.297-.27 5.225-.257 2.254.016 3.506-.073 3.506-.249 0-.183-1.567-.228-4.75-.137-3.77.108-4.765.065-4.828-.208-.063-.275-.213-.266-.74.045-.608.358-.614.376-.067.228.884-.239.722.123-.198.444-.437.152-.794.396-.794.543 0 .154.197.183.463.07.255-.11 1.237-.325 2.183-.48zm10.12-.614a1.021 1.021 0 0 0-.661 0c-.182.074-.033.134.33.134.364 0 .513-.06.331-.134zm97.3-1.677c0-.145.232-.264.514-.264.283 0 .595-.132.695-.293.124-.2-.017-.234-.448-.104-.75.226-1.569.926-1.082.926.177 0 .322-.12.322-.265zm39.803-.501c.16-.259-.633-.656-.858-.431-.076.076.007.139.186.139.178 0 .25.119.16.264-.09.146-.044.265.101.265.146 0 .33-.107.411-.237zm-21.766-.504c.048-.116.95-.145 2.006-.063 1.445.111 1.918.065 1.918-.186 0-.514-3.801-.457-4.233.064-.199.24-.22.397-.055.397.152 0 .315-.096.363-.212zM72.507 99.975c-.382-.652-1.863-2.333-1.863-2.114 0 .314 1.679 2.577 1.912 2.577.123 0 .1-.208-.049-.463zm-11.885-2.518c-.26-.26-.291-.229-.148.148.1.261.248.408.33.326.08-.081 0-.295-.182-.474zm8.996-.794c-.261-.26-.291-.229-.148.148.1.261.247.408.329.327.081-.082 0-.295-.18-.475zm-10.615-.325c-.341-.363-.688-.593-.77-.511-.082.082.147.377.508.654.904.695 1 .642.262-.143zm8.602-2.193c-.566-.54-.863-.745-.661-.454.677.975 1.407 1.72 1.549 1.578.077-.077-.323-.583-.888-1.124zm-7.28.472c0-.145-.126-.264-.28-.264-.154 0-.207.119-.117.264.09.146.216.265.28.265.064 0 .117-.12.117-.265zm-6.778-3.88c-1.091-1.415-1.06-1.024.06.75.397.63.768 1.005.824.836.057-.17-.341-.884-.884-1.587zm11.774-.552c-.65-1.168-1.325-1.973-1.504-1.794-.07.07.023.31.207.531.388.468.185.518-.535.133-.409-.219-.476-.193-.352.132.085.222.328.403.54.403.21 0 .315.11.231.246-.084.136-.013.333.158.438.193.12.239.077.12-.114-.103-.168-.062-.305.092-.305s.28.229.28.51c0 .44.306.653 1.12.782.107.017-.054-.416-.357-.962zm-14.256-3.24c-.156-.292-.343-.53-.416-.53-.073 0-.005.238.151.53.156.29.343.528.415.528.073 0 .005-.238-.15-.529zm55.297-3.013c0-.235-1.07-.357-1.205-.138-.082.132.156.24.528.24.373 0 .677-.046.677-.102zm-.41-4.357c-.138-.124-.906-.14-1.706-.037l-1.455.188 1.706.037c.956.021 1.596-.062 1.455-.188zm-7.262-.45c-1.408-.443-1.796-.481-1.442-.14.258.249 1.172.465 2.103.497.291.01-.007-.15-.661-.357zm12.17-.118c0-.146-.052-.265-.116-.265s-.19.12-.28.265c-.09.145-.038.264.116.264s.28-.119.28-.264zm1.059-.16c0-.058-.179-.105-.397-.105-.218 0-.397.115-.397.256 0 .141.179.188.397.104.218-.083.397-.199.397-.256zm4.1.16c.208-.335-.143-.335-.66 0-.343.22-.336.257.05.26.246.002.52-.115.61-.26zm3.172-.298c.524-.309.892-.623.817-.697-.074-.074-.432.06-.796.297-.363.238-.85.433-1.082.433-.232 0-.348.12-.258.265.217.35.221.35 1.319-.298zm-23.015-.231c-.09-.146-.365-.257-.61-.246-.366.015-.35.06.08.246.709.304.718.304.53 0zm-39.522-.6c-.262-.26-.292-.23-.148.148.099.26.247.408.328.326.082-.081 0-.295-.18-.474zm61.218.07c.207-.334-.143-.334-.662 0-.342.221-.335.257.05.26.247.003.522-.114.612-.26zm3.713-2.075c1.504-.799 5.405-4.373 5.103-4.675-.075-.075-1.137.822-2.36 1.994-1.46 1.4-2.802 2.41-3.91 2.944-1.221.589-1.587.877-1.323 1.043.23.145.462.103.629-.114.145-.19.983-.726 1.861-1.192zm2.747.055c.363-.318-.498-.023-.92.315-.484.388-.475.394.148.097.364-.174.711-.359.772-.412zm-80.026-1.136c.084-.136.032-.321-.116-.413-.148-.091-.27.02-.27.246 0 .465.16.534.386.167zM75.9 71.01a16.987 16.987 0 0 1-1.161-1.875c-.333-.642-.554-.857-.608-.593-.048.23.28.879.727 1.444.448.565.814 1.135.814 1.267 0 .312.59.901.747.745.066-.066-.167-.51-.519-.988zm52.014-1.192c.217-.567-.224-.358-.741.352-.486.668-.486.67.06.328.304-.189.61-.495.68-.68zm-45.892-.172c0-.055-.209-.263-.463-.463-.42-.329-.43-.32-.1.1.346.441.563.581.563.363zm-38.719-3.14c-.073-.183-.133-.034-.133.33s.06.512.133.33c.074-.181.074-.479 0-.66zm-.175-1.258c0-.29-.108-.529-.24-.529s-.177.238-.101.53c.076.29.184.529.24.529.055 0 .101-.239.101-.53zm-.123-1.525c-.087-.227-.224-.84-.304-1.362-.156-1.013-.48-1.54-.714-1.161-.219.354.66 3.256.935 3.086.133-.082.17-.336.083-.563zm92.198-.856c0-.145-.126-.264-.28-.264-.154 0-.207.119-.117.264.09.146.216.265.28.265.065 0 .117-.12.117-.265zm-56.91-2.07c-.035-.848.018-1.673.117-1.834a.342.342 0 0 0-.107-.47c-.18-.112-.22-.572-.108-1.237.175-1.039.169-1.05-.327-.568-.278.27-.433.55-.345.623.089.073.187.787.218 1.587.031.8.1 1.753.15 2.117.052.364.11.81.128.992.019.182.102.33.185.33s.123-.693.088-1.54zM41.978 59.36c-.073-.182-.133-.033-.133.331s.06.513.133.33c.074-.181.074-.479 0-.66zm-1.058-1.323c-.073-.181-.133-.033-.133.331s.06.513.133.33c.073-.181.073-.479 0-.66zm77.083-6.019a.265.265 0 0 0-.264-.264.265.265 0 0 0-.265.264.265.265 0 0 0 .53 0zm-46.17-1.587c.09-.146.038-.265-.116-.265s-.28.12-.28.265c0 .145.052.264.116.264s.19-.119.28-.264zm3.112-4.763c-.01-.073.066-.192.169-.264.321-.228 1.402-2.117 1.21-2.117-.539 0-1.975 2.343-1.768 2.884.131.34.17.342.28.013.07-.21.12-.443.11-.516zm4.13-1.818c-.054-.158-.314.098-.58.567l-.48.854.578-.567c.318-.313.535-.697.482-.854zm30.063-3.21c-.264-.292-.533-.479-.597-.415-.155.155.533.922.838.935.132.006.023-.229-.24-.52zm-30.972-.824c-.213.413-.07.366 1.138-.372.56-.342.809-.67.721-.948-.074-.234.05-.579.275-.766.529-.438.84-.136.402.391-.533.643.162.486.778-.176.569-.61.775-1.349.222-.796-.174.174-.442.313-.595.308-.153-.004.01-.248.361-.54.351-.293.708-.424.794-.292.085.132.393.145.684.03.335-.133.385-.217.137-.229-.562-.026 1.225-1.183 3.287-2.128.97-.444 1.693-.92 1.607-1.058-.181-.294-1.16.085-2.513.975-.507.333-1.009.605-1.116.605-.332 0-4.14 2.563-5.776 3.887-.97.786-1.44 1.328-1.25 1.444.166.103.466-.012.667-.257.201-.244.281-.28.177-.078zm2.928-.233c.09-.146.037-.265-.117-.265s-.28.12-.28.265c0 .145.052.264.117.264.064 0 .19-.119.28-.264zm23.283-.265c-.09-.145-.365-.263-.61-.26-.386.003-.393.04-.051.26.518.335.868.335.661 0zm-1.19-.529c0-.145-.17-.265-.376-.265s-.593-.069-.86-.153c-.443-.141-.44-.119.03.264.579.472 1.205.552 1.205.154zm-2.382-2.646c-.218-.14-.575-.25-.793-.242-.262.01-.217.092.132.242.727.313 1.145.313.661 0zm32.31-3.25c-.217-.217-.295-.187-.295.11 0 .526.356.882.487.488.056-.168-.03-.437-.193-.599zm-44.613-1.022c.173-.168.08-.194-.264-.076-.883.303-3.308 1.446-3.308 1.56 0 .165 3.275-1.195 3.572-1.484zm1.852.827c.726-.187.738-.206.132-.223-.363-.01-.959.165-1.322.389-.44.269-.484.344-.133.222.291-.1.887-.275 1.323-.388zm34.419-11.348c-.406-.423-.975-.831-1.265-.907-.507-.133-.51-.119-.056.382.393.434 1.509 1.162 1.943 1.267.063.016-.216-.318-.622-.742zm7.27-.52c-.236-.443-1.34-.974-1.34-.646 0 .19 1.152 1.123 1.399 1.134.114.005.088-.215-.058-.488zm-1.778-1.534c.193-.194-.837-1.41-1.195-1.41-.359 0-.25.488.237 1.056.486.569.674.638.958.354zm-1.943-.467c0-.065-.12-.19-.265-.28-.145-.09-.264-.038-.264.116s.119.28.264.28c.146 0 .265-.052.265-.116zm-1.117-.721c-.057-.17-.394-.48-.75-.69-.57-.338-.592-.337-.184.006.255.214.463.525.463.69 0 .166.13.302.287.302.158 0 .24-.139.184-.308zm.852-.85c0-.055-.208-.263-.463-.463-.42-.33-.429-.32-.1.1.346.44.563.58.563.363zm-6.884-3.743c-.184-.222-.404-.334-.488-.25-.084.084.022.264.236.399.56.354.634.31.252-.15zm-58.31-1.317c.392-.363.598-.661.456-.661-.141 0-.537.298-.878.661-.342.364-.548.662-.457.662.09 0 .486-.298.879-.662zm8.726-.958c.079-.128.027-.232-.115-.232-.451 0-1.096.313-1.096.532 0 .266 1.016.014 1.21-.3zm32.849-.127c-.088-.088-.316-.098-.507-.021-.211.084-.149.147.16.16.278.011.435-.052.347-.14zM73 10.584c.468-.233.8-.475.739-.536-.169-.169-1.432.358-1.631.68-.232.376-.11.356.892-.144zm43.416-1.531c0-.057-.185-.175-.411-.262-.235-.09-.342-.046-.249.104.155.252.66.372.66.158zM68.56 8.187c.332-.402.307-.41-.299-.096-.887.46-.953.537-.473.537.225 0 .572-.199.772-.44zM89.958 5.82c0-.056-.304-.102-.677-.102-.372 0-.61.108-.529.24.136.22 1.206.096 1.206-.138zm11.51-2.219c.09-.145.044-.264-.101-.264-.146 0-.339.119-.428.264-.09.146-.045.265.1.265.146 0 .339-.119.429-.265zM87.429 228.62c.283-.214.633-.388.778-.388.146 0 .034.174-.249.388-.282.214-.632.389-.778.389-.145 0-.033-.175.25-.389zm14.18-6.143c.004-.11.331-.427.727-.706l.72-.508-.642.706c-.674.742-.82.834-.806.508zm3.252-2.529c.49-.95 1.689-2.3 2.042-2.3.43 0-.11.806-1.33 1.985-.974.941-1.053.976-.712.315zm3.618-3.785c0-.499.991-1.69 1.406-1.69.347 0 .156.402-.623 1.313-.664.778-.783.835-.783.377zm-8.202-1.69c0-.145.126-.264.28-.264.154 0 .207.119.117.264-.09.146-.216.265-.28.265-.064 0-.117-.12-.117-.265zm10.583-.762c0-.146.12-.338.265-.428.146-.09.265-.045.265.1 0 .146-.12.339-.265.429-.146.09-.265.044-.265-.101zm1.191-1.619c.09-.145.216-.265.28-.265.064 0 .117.12.117.265 0 .146-.126.265-.28.265-.154 0-.207-.12-.117-.265zm1.052-1.521c.41-.846.668-1.087.668-.625 0 .13-.244.516-.542.86l-.543.625zm-6.74-7.312c0-.256 1.125-2.036 1.224-1.937.139.139-.671 1.728-.977 1.917-.136.084-.247.093-.247.02zm1.587-3.042c0-.145.12-.338.265-.428.145-.09.264-.045.264.101 0 .146-.119.338-.264.428-.146.09-.265.045-.265-.1zm.265-1.24c0-.081.138-.408.308-.724.313-.587.522-1.535.52-2.367-.001-.254.12-.463.27-.463.308 0 .092 1.822-.353 2.977-.242.628-.745 1.018-.745.578zm45.053-3.924c-.613-.165-1.268-.465-1.455-.665-.283-.305-.25-.333.19-.171.291.107 1.214.324 2.05.482.837.159 1.522.387 1.522.506 0 .284-.912.224-2.307-.152zm4.688.106c0-.146.179-.265.397-.265.218 0 .397.12.397.265 0 .145-.179.264-.397.264-.218 0-.397-.119-.397-.264zm8.996 0c0-.146.186-.265.413-.265.226 0 .338.12.249.265-.09.145-.276.264-.413.264-.137 0-.249-.119-.249-.264zm-19.05-1.059c-.314-.203-.259-.256.265-.256.363 0 .84.115 1.058.256.314.203.259.257-.265.257-.363 0-.84-.116-1.058-.257zm-37.817-1.918c-.01-.4.1-.727.246-.727.31 0 .31.203 0 .926-.201.469-.23.446-.246-.199zm-62.063-.463c.09-.145.216-.264.28-.264.064 0 .117.119.117.264 0 .146-.126.265-.28.265-.155 0-.207-.12-.117-.265zm128.852 0c.09-.145.216-.264.28-.264.064 0 .117.119.117.264 0 .146-.126.265-.28.265-.154 0-.207-.12-.117-.265zm2.646-1.464c.436-.368 1.27-.903 1.852-1.188.582-.286 1.415-.75 1.852-1.03 1.293-.834 1.359-.621.104.336-1.932 1.475-5.3 3.139-3.808 1.882zm-121.361-.04c.19-.076.419-.067.507.021.088.088-.069.15-.347.14-.309-.013-.371-.076-.16-.16zm79.292-.3a16.622 16.622 0 0 1-1.984-1.043c-.51-.325-1.037-.628-1.172-.673-.135-.046-.164-.214-.065-.375.255-.412 1.725.173 1.911.762.133.416.874.751 2.435 1.099.328.073.529.025.447-.107-.173-.28-.051-.3.516-.082.354.136.36.21.04.53-.468.468-.813.45-2.128-.112zm42.995-1.223c.98-.362 1.44-.287.786.127-.214.135-.687.239-1.05.23-.581-.014-.549-.058.264-.357zm-118.429-1.023c.276-.174.802-.643 1.168-1.043.367-.4.82-.728 1.009-.728.187 0 .971-.376 1.742-.837.77-.46 1.638-.822 1.927-.805.29.017.926-.204 1.413-.491.488-.288 1.262-.567 1.722-.62.46-.054.917-.111 1.016-.128.099-.016.362-.212.586-.436.591-.59 2.277-1.256 2.277-.898 0 .159-.476.476-1.058.705-.582.229-1.059.576-1.059.772 0 .197-.245.357-.544.357-.3 0-.48.107-.399.237.08.13-.024.302-.232.382-.208.08-.415.036-.461-.098-.046-.133-.854.125-1.796.574-.942.45-1.954.849-2.249.888a3.822 3.822 0 0 0-2.108.98c-.57.53-.942.614-.942.212a.261.261 0 0 0-.256-.265c-.141 0-.198.152-.127.337.07.185-.22.543-.645.794-.874.516-1.794.62-.984.11zm69.613-.977c-.207-.335.144-.335.662 0 .342.221.335.257-.05.26-.247.003-.522-.114-.612-.26zm-63.54-.728c.174-.282 2.386-1.653 2.667-1.653.523 0-.033.537-1.105 1.068-.692.342-1.365.677-1.497.744-.131.067-.16-.005-.066-.159zm60.937-.494c-.413-.224-.692-.466-.62-.538.141-.141 1.768.633 1.768.84 0 .217-.37.12-1.148-.302zm-114.592-.242c-.282-.213-.386-.388-.23-.388.155 0 .43.179.612.397.412.496.282.493-.382-.008zm-.098-.825c-.759-.532-1.321-1.025-1.249-1.098.072-.072.58.172 1.129.542.548.37 1.354.86 1.79 1.087.652.34.697.416.252.425-.298.006-1.163-.425-1.922-.956zm108.672-1.225c-.04-.106-.154-1.248-.125-1.248.016 0 .226.228.465.508.366.427.375.532.059.653-.207.08-.387.119-.399.087zm66.433-.587c0-.218.115-.397.256-.397.14 0 .188.179.104.397-.084.218-.2.397-.256.397-.058 0-.104-.179-.104-.397zm-67.47-.132c-.338-.22-.329-.257.067-.26.255-.003.463.114.463.26 0 .322-.03.322-.529 0zm68.59-.63c.252-.192.391-.416.308-.5-.083-.082.098-.283.401-.446.304-.162.552-.192.552-.067 0 .303-1.158 1.38-1.472 1.37-.136-.005-.041-.165.211-.357zM10.451 181.4c-.09-.145-.044-.264.101-.264.146 0 .338.119.428.264.09.146.045.265-.1.265-.146 0-.339-.12-.429-.265zm65.881-1.058c.09-.145.283-.265.428-.265.146 0 .191.12.101.265-.09.146-.282.265-.428.265-.145 0-.19-.12-.1-.265zm.926-.247c0-.184 1.16-.811 1.5-.811.084 0 .015.165-.153.368-.345.416-1.347.745-1.347.443zm-69.43-3.154c-.076-.125-.264-.571-.416-.993l-.277-.765.528.661c.29.364.53.81.533.992.007.383-.165.432-.367.105zm188.095-.906c.405-.55.803-.932.884-.851.082.081-.25.531-.736 1l-.884.85zM6.47 175.562c-.096-.155-.117-.339-.048-.408.07-.07.197.057.283.282.179.466.026.548-.235.126zm.273-.78a.316.316 0 0 0-.433-.104c-.316.195-.844-.497-1.984-2.596-.457-.843-.725-1.599-.595-1.679.377-.233.711.091 1.461 1.42.386.684.985 1.69 1.33 2.235.346.546.574.992.508.992-.066 0-.195-.12-.287-.268zm78.03-.751c.56-.631.686-.689.686-.313 0 .14-.267.396-.595.568-.592.31-.593.31-.091-.255zm1.12-.963c.083-.218.26-.329.392-.247.278.172.055.642-.304.642-.132 0-.172-.178-.089-.395zm-83.156-3.523c-.08-.246-.317-.913-.53-1.481-.295-.792-.31-1.08-.068-1.23.307-.19.095-1.592-.46-3.038-.12-.31-.082-.412.107-.295.159.098.37.564.468 1.035.258 1.236.966 3.396 1.366 4.164.19.364.345.785.346.936.003.466-1.076.386-1.229-.091zm88.93-.034c.25-.406 1.73-1.06 1.73-.766 0 .148-.238.332-.53.408-.29.076-.528.243-.528.372s-.186.234-.413.234c-.227 0-.343-.112-.26-.248zm-90.314-4.276c-.163-.466-.286-1.276-.275-1.8.017-.775.09-.635.39.752.406 1.866.349 2.379-.115 1.048zm100.477-.702c-.33-.42-.32-.429.1-.1.254.2.463.408.463.463 0 .218-.218.078-.563-.363zM.548 161.623c.016-.645.044-.668.246-.199.31.723.31.926 0 .926-.146 0-.256-.327-.246-.727zM0 158.763c0-.227.12-.339.265-.249.145.09.264.276.264.412 0 .137-.119.25-.264.25-.146 0-.265-.186-.265-.413Zm.265-6.165c0-2.822.228-5.064.516-5.064.1 0 .095.722-.01 1.606-.103.883-.156 2.61-.116 3.836.04 1.227-.031 2.23-.159 2.23-.127 0-.231-1.173-.231-2.608zm1.322-10.988c0-.057.236-.623.524-1.257.288-.635.526-.983.529-.776.009.582-.603 2.136-.841 2.136-.116 0-.212-.047-.212-.103zm95.515-.971c0-.154.12-.207.265-.117.145.09.264.216.264.28 0 .065-.119.117-.264.117-.146 0-.265-.126-.265-.28zm-1.463-1.241-.465-.728.765.662c.422.363.816.69.876.727.061.037-.074.066-.3.066-.226 0-.62-.327-.876-.727zm-92.862-1.16c.103-.344.353-.758.557-.92.204-.161.37-.494.37-.738 0-.493.929-2.429 1.266-2.637.118-.073.375-.034.57.087.283.175.227.4-.277 1.1-.348.485-.93 1.47-1.294 2.19-.713 1.41-1.525 2.035-1.192.919zm86.907-6.094c-.303-.59-.296-.597.162-.16.263.25.405.528.316.617-.088.089-.303-.117-.478-.457zm-83.334.036c0-.39 1.387-2.36 1.667-2.368.117-.003-.092.393-.463.88-.371.486-.675 1.015-.675 1.175 0 .16-.119.363-.264.453-.146.09-.265.027-.265-.14zm80.948-1.481c-.501-.528-.743-.908-.537-.846.346.106 1.818 1.806 1.563 1.806-.063 0-.524-.432-1.026-.96zm25.944.704c0-.14.268-.395.595-.567.592-.31.593-.31.091.255-.56.63-.686.688-.686.312zm-105.04-2.125c0-.146.126-.265.28-.265.154 0 .207.119.117.265-.09.145-.216.264-.28.264-.064 0-.117-.119-.117-.264zm95.25-.28c0-.155.12-.207.265-.117.145.09.264.216.264.28 0 .064-.119.117-.264.117-.146 0-.265-.127-.265-.28zm-18.785-1.324c0-.154.119-.206.264-.116.146.09.265.216.265.28 0 .064-.12.117-.265.117-.145 0-.264-.126-.264-.28zm16.58-1.028c-1.194-1.513-1.692-2.084-3.326-3.816-.669-.708-.977-1.166-.684-1.017.292.15 1.245 1.082 2.116 2.074.872.991 1.972 2.197 2.445 2.68.82.835 1.091 1.4.662 1.377-.11-.006-.655-.59-1.214-1.298zm-18.576-.826c-.096-.155-.117-.339-.048-.408.07-.07.197.058.283.282.179.466.026.548-.235.126zm-2.595-3.182c-.684-.8-.378-.89.358-.106.342.363.507.66.369.66-.139 0-.466-.25-.727-.554zm16.1-1.563c-.09-.145-.037-.264.117-.264s.28.119.28.264c0 .146-.053.265-.117.265s-.19-.12-.28-.265zm-28.707-.28c0-.154.119-.206.264-.116.146.09.265.216.265.28 0 .064-.12.116-.265.116-.145 0-.264-.126-.264-.28zm11.024.104a.729.729 0 0 1-.176-.45c0-.166.123-.15.313.04.172.172.251.375.176.45-.075.075-.216.057-.313-.04zm16.6-1.213-.504-.595.595.504c.327.277.595.545.595.595 0 .212-.213.056-.686-.504zm-30.402-.184c-.582-.275-.924-.51-.76-.522.368-.026 2.215.731 2.215.908 0 .226-.37.128-1.455-.386zm67.336-1.715c0-.073.238-.26.53-.416.29-.156.528-.223.528-.15 0 .072-.238.26-.529.415-.29.156-.529.224-.529.15zm6.88-3.855c.218-.141.575-.25.793-.242.262.01.217.092-.132.242-.728.312-1.145.312-.662 0zm3.002-1.224c.415-.224 1.367-.62 2.117-.878s1.57-.558 1.826-.667c.262-.113.463-.085.463.064 0 .144-.685.524-1.522.845-.837.32-1.795.692-2.129.825-1.034.41-1.6.269-.755-.189zm4.802-1.687c.09-.145.365-.263.611-.26.386.003.393.04.05.26-.517.335-.868.335-.66 0zm24.93-.819c-.258-.15-.913-.245-1.455-.21-1.818.117-3.27-.02-3.102-.294.294-.475 3.87-.297 5.027.25.714.338.886.506.53.515-.291.007-.741-.11-1-.26zm-21.887-.076c0-.056.238-.164.53-.24.29-.076.462-.03.38.102-.141.23-.91.347-.91.138zm1.652-.758c.06-.182.457-.363.882-.401l.773-.07-.661.391c-.82.485-1.135.51-.994.08zm6.815.229c0-.056.238-.164.53-.24.29-.076.462-.03.38.101-.142.23-.91.348-.91.139zm12.749-.699c-.774-.112-1.488-.292-1.588-.399-.248-.265 3.144.122 3.648.417.496.29.028.286-2.06-.018zm-17.115-.258c.09-.146.283-.265.428-.265.146 0 .191.12.101.265-.09.146-.282.265-.428.265-.145 0-.19-.12-.1-.265zm8.55.084c.19-.077.419-.067.507.02.088.089-.069.151-.348.14-.308-.013-.37-.076-.16-.16zm-79.4-2.127c-.81-.984-1.412-1.85-1.339-1.924.073-.073.391.224.707.66a27.08 27.08 0 0 0 1.47 1.793c.494.55.839 1.058.766 1.13-.072.073-.794-.674-1.604-1.659zm79.256 1.066c.257-.067.614-.063.794.01.179.072-.032.127-.469.122-.436-.005-.583-.065-.325-.132zm3.699 0c.255-.066.671-.066.926 0 .255.067.046.122-.463.122-.51 0-.718-.055-.463-.121zm1.857 0c.257-.067.615-.063.794.01.179.072-.032.127-.468.122-.437-.005-.583-.065-.326-.132zm-88.058-3.801c-.575-.59-.843-.997-.596-.903.385.146 1.991 1.977 1.734 1.977-.05 0-.562-.483-1.138-1.074zm.564-.42c-.243-.633-.053-.681.321-.082.178.285.216.517.084.517-.13 0-.313-.195-.405-.434zm-20.439-2.652c-1.62-2.237-1.76-2.47-1.493-2.467.118.001.512.442.876.98.363.537 1.048 1.34 1.521 1.783.59.553.789.918.633 1.16-.166.257-.583-.138-1.537-1.456zm17.912.987c-.191-.358-.189-.566.008-.688.341-.21.395-.16.63.606.226.736-.254.798-.638.082zm-.945-1.092c-.096-.155-.111-.346-.034-.423.19-.19.706.144.706.456 0 .338-.457.316-.672-.033zm-1.634-1.755c-.322-.335-.49-.609-.371-.609.258 0 1.22 1.029 1.066 1.14-.06.043-.373-.196-.695-.531zM56.36 96.27c-.725-.982-1.32-1.879-1.322-1.993-.008-.426 1.089.395 1.312.983.128.335.539.94.913 1.345.608.655.908 1.452.548 1.452-.073 0-.726-.804-1.451-1.786zm17.087 1.04c-.212-.411-.577-.906-.81-1.1-.234-.193-.79-.84-1.236-1.435-.446-.596.03-.191 1.06.9 1.028 1.092 1.874 2.074 1.879 2.183.022.479-.54.134-.893-.548zm-4.424-6.86c-.329-.42-.32-.43.1-.1.441.346.581.563.364.563-.055 0-.264-.208-.464-.463zm-2.985-1.41c-.377-.447-.685-.94-.685-1.093 0-.154.26.063.577.483l.826 1.094c.518.687-.062.296-.718-.483zm-16.56-1.567c-.169-.316-.248-.634-.175-.706.073-.073.27.126.44.442.169.316.248.634.175.707-.073.072-.27-.127-.44-.443zm51.616-.623c.297-.255 1.83-.392 1.83-.164 0 .142-.437.258-.97.258-.534 0-.92-.042-.86-.094zm5.137-.17c-.09-.146-.037-.265.117-.265s.28.12.28.265c0 .145-.052.264-.117.264-.064 0-.19-.119-.28-.264zm-7.607-.452a3.768 3.768 0 0 1 1.191 0c.327.063.06.115-.595.115s-.923-.052-.596-.115zm-35.86-1.978c-.913-1.187-1.194-2.114-.307-1.01.545.678 1.388 2.117 1.24 2.117-.046 0-.465-.498-.933-1.107zm29.711.846c-.1-.163.167-.198.712-.094 1.17.223 1.271.355.272.355-.453 0-.895-.118-.984-.26zm-2.437-.561c-.465-.135-.927-.375-1.025-.534-.117-.19.014-.234.384-.128l1.091.31c.292.083.53.262.53.398 0 .135-.03.236-.066.223a57.473 57.473 0 0 0-.914-.27zm25.057.067c0-.226 2.414-1.152 2.577-.99.063.063-.151.256-.475.43-.834.446-2.102.784-2.102.56zm-54.116-2.529c-.255-.389-.496-.97-.535-1.291-.04-.322-.263-1.031-.495-1.577-.586-1.371-.139-1.242.483.14.276.614.645 1.296.82 1.514.483.605.635 1.202.401 1.58-.155.252-.333.156-.674-.366zm60.201.236c0-.155 1.84-1.303 2.448-1.527.766-.283.524.032-.53.688-1.06.661-1.918 1.036-1.918.839zm2.874-2.494c.343-.299.76-.542.926-.54.316.005-.124.355-1.022.814-.416.213-.395.154.096-.274zm1.624-.231c0-.32.502-.693.686-.51.066.067-.06.273-.283.457-.251.208-.403.228-.403.053zm-17.917-1.478c.259-.198.914-.366 1.455-.374.541-.008 1.49-.128 2.108-.268.619-.14 1.125-.176 1.125-.081 0 .3-2.192.882-3.704.985-1.272.086-1.396.053-.984-.262zm-28.39-.296c-.28-.337-.263-.376.1-.236.239.091.434.273.434.403 0 .34-.153.292-.534-.167zm49.456-.663c.495-.437.967-.727 1.048-.646.174.174-1.296 1.426-1.683 1.434-.146.003.14-.352.635-.788zm-71.002-.497c-.233-.45-.32-.818-.194-.818.268 0 .92 1.333.74 1.514-.067.067-.313-.246-.546-.696zm56.857-.694c.283-.214.64-.385.794-.38.154.004.05.183-.233.396-.283.214-.64.385-.794.38-.154-.004-.05-.183.233-.396zm-37.556-.39c-.265-.292-.432-.578-.372-.636.06-.058.322.181.584.53.577.773.449.836-.212.105zm54.373-.479c0-.118.357-.557.794-.975.55-.527.793-.638.793-.36 0 .22-.275.659-.612.975-.64.601-.975.725-.975.36zm-12.7-.427c0-.073.238-.26.53-.416.29-.156.528-.223.528-.15 0 .072-.238.259-.529.415-.291.156-.53.223-.53.15zm-.208-.813c.536-.363 1.062-.661 1.169-.661.107 0 .462-.251.789-.558.326-.306.747-.506.935-.443.189.063-.494.611-1.517 1.219-2.037 1.21-2.925 1.496-1.376.443zm-61.795-.238c-.435-.663-1.511-3.441-1.488-3.838.005-.086.191.14.414.504l.404.662-.134-.634c-.165-.776.233-.401.496.469.143.47.106.576-.143.422-.184-.114-.28-.099-.215.033.066.131.293.596.504 1.033.211.436.485.867.609.958.123.09.183.381.131.648-.079.41-.166.372-.578-.257zM41.68 68.283c-.408-.805-.656-1.55-.551-1.654.256-.255.94.714.94 1.333 0 .273.128.737.286 1.03.157.295.236.585.176.645-.061.06-.444-.548-.851-1.354zm13.53 1.022a.729.729 0 0 1-.177-.45c0-.165.124-.15.313.04.173.172.252.375.177.45-.075.075-.216.057-.313-.04zm69.144-.318c0-.363.73-.882.886-.63.076.124-.092.369-.374.545-.281.176-.512.214-.512.085zM54.685 66.47c-.1-.26-.173-.67-.164-.913.011-.292.103-.225.272.198.14.351.214.762.164.913-.05.15-.173.061-.272-.198zm16.488-2.28c0-.437.046-.794.102-.794.056 0 .155.357.219.794.064.437.018.794-.102.794s-.22-.357-.22-.794zm-17.021-.64c-.084-.22-.21-1.327-.279-2.46-.069-1.132-.074-1.702-.01-1.266.063.437.242 1.49.397 2.341.27 1.485.212 2.22-.108 1.384zm-.685-.308c.012-.308.075-.371.16-.16.076.191.067.42-.021.507-.088.088-.15-.068-.14-.347zm17.344-.318c-.244-.395-.746-3.979-.628-4.486.06-.256.193.13.297.857.105.728.309 1.844.453 2.48.253 1.11.194 1.66-.122 1.149zm-17.563-1.777c.003-.582.057-.789.12-.46.064.33.061.806-.005 1.059-.066.253-.118-.017-.115-.599zm-13.774-.793c.006-.437.065-.584.132-.326.067.257.063.614-.01.794-.072.179-.127-.032-.122-.468zm-.295-1.61c.013-.308.076-.37.16-.16.077.191.067.42-.02.507-.089.088-.151-.068-.14-.347zm14.41-.092c-.083-.135-.03-.321.117-.412.148-.092.269.019.269.246 0 .465-.159.533-.386.166zm51.181-.214c.216-.085.558-.319.76-.52.201-.203.441-.293.533-.201.227.227-.76.922-1.272.896-.352-.018-.355-.044-.02-.175zm-51.294-2.252c.03-1.58.04-1.606.25-.595.302 1.464.297 2.249-.016 2.249-.151 0-.251-.707-.234-1.654zm-1.435.853c-.097-.36-.164-1.011-.15-1.448.02-.633.073-.553.26.397.256 1.3.171 2.105-.11 1.051zm-12.986-1.13c-.124-.697-.151-1.342-.06-1.433.328-.329.457.16.372 1.417l-.086 1.286zm14.551-5.194c.052-2.1.206-3.93.343-4.068.157-.156.197.922.108 2.892-.213 4.683-.558 5.585-.45 1.176zm18.833-3.868c-.103-.102-.004-.54.22-.971.526-1.018.76-.784.312.313-.19.465-.429.761-.532.658zM54.287 45.67c-.004-.364.156-1.138.355-1.72.29-.845.34-.898.251-.264-.06.436-.22 1.21-.355 1.72-.193.733-.246.788-.251.264zm-13.108-1.19c.084-.219.2-.397.257-.397.057 0 .104.178.104.397 0 .218-.116.396-.257.396-.14 0-.187-.178-.104-.396zm13.875-2.14c.013-.307.076-.37.16-.159.077.191.067.42-.02.507-.089.088-.151-.068-.14-.347zm-13.494-.793c.013-.308.076-.37.16-.16.077.191.067.42-.02.507-.088.088-.151-.068-.14-.347zm13.759-.264c.013-.309.075-.371.16-.16.076.19.067.419-.021.507-.088.088-.15-.069-.14-.347zm61.01-.023a.729.729 0 0 1-.177-.45c0-.165.123-.15.313.04.172.173.252.375.177.45-.076.075-.217.057-.314-.04zm-60.862-1.014c.084-.218.199-.397.256-.397.057 0 .104.179.104.397 0 .219-.115.397-.256.397-.141 0-.188-.178-.104-.397zm37.799.01a9.149 9.149 0 0 1 1.72-.505c.76-.132.69-.07-.397.345-1.48.566-2.561.696-1.323.16zm3.786-.323c.191-.076.42-.067.508.021.087.088-.069.15-.348.14-.308-.014-.37-.076-.16-.16zm-54.266-.877c.076-.291.184-.53.24-.53.055 0 .101.239.101.53 0 .29-.108.529-.24.529s-.177-.238-.101-.53zm72.308-.397c-.19-.229-.216-.397-.06-.397.147 0 .336.178.42.397.084.218.111.397.06.397-.05 0-.24-.179-.42-.397zm-1.035-1.147c-.187-.35-.168-.485.07-.485.181 0 .346.218.366.485.02.267-.011.485-.07.485-.058 0-.223-.218-.366-.485zm-57.306-.573c.09-.146.216-.265.28-.265.064 0 .117.12.117.265 0 .145-.126.265-.28.265-.154 0-.207-.12-.117-.265zm41.143-6.615c0-.145.305-.264.677-.264.384 0 .606.114.513.264-.09.146-.394.265-.677.265-.282 0-.513-.12-.513-.265zM53.446 20.27c0-.145.126-.264.28-.264.154 0 .207.119.117.264-.09.146-.216.265-.28.265-.065 0-.117-.12-.117-.265zm14.816-.5c0-.13.196-.312.435-.404.363-.139.38-.1.1.237-.381.459-.534.507-.534.166zm-11.906-3.04c0-.054.209-.263.463-.462.42-.33.43-.32.1.1-.345.44-.563.58-.563.363zm69.48-3.622c-.567-.426-.865-.772-.661-.768.203.004.787.358 1.296.786 1.196 1.008.71.994-.635-.018zm-23.84-1.04c-.208-.338.669-.338 1.192 0 .31.2.241.257-.316.26-.391.003-.785-.114-.875-.26zm-40.744-1.06c.09-.147.544-.45 1.008-.674l.843-.407-.794.672c-.804.682-1.358.896-1.057.409zm3.174-2.115c.09-.145.283-.264.428-.264.146 0 .191.119.101.264-.09.146-.282.265-.428.265-.145 0-.19-.12-.101-.265zM75.621 3.95c.191-.077.42-.067.507.02.088.089-.068.151-.347.14-.308-.013-.37-.076-.16-.16zm1.01-.557c-.07-.115.19-.233.58-.262.546-.041.617.006.312.204-.485.316-.723.331-.891.058zm5.001-1.082c.141-.134.792-.315 1.447-.403.757-.102.998-.079.662.065-.851.363-2.397.61-2.109.338zm19.174-.354c-.575-.25-.597-.303-.17-.405.27-.064.611.004.759.15.147.148.67.203 1.162.123.575-.093.895-.038.895.154 0 .379-1.76.364-2.646-.022zm-6.215-1.8c.092-.147.277-.2.413-.116.367.227.298.385-.166.385-.227 0-.338-.12-.247-.268zm.924.168c0-.24 1.031-.343 1.36-.135.244.155.084.23-.5.232-.473.003-.86-.041-.86-.097z" />
</svg>